<svg width="28" height="28" viewBox="0 0 28 28" fill="none" xmlns="http://www.w3.org/2000/svg">
<path d="M23.333 14.3201C23.333 14.763 23.0038 15.1291 22.5767 15.1871L22.458 15.1951L4.95801 15.1951C4.47476 15.1951 4.08301 14.8033 4.08301 14.3201C4.08301 13.8771 4.41219 13.511 4.83928 13.4531L4.95801 13.4451L22.458 13.4451C22.9413 13.4451 23.333 13.8368 23.333 14.3201V14.3201Z" fill="black"/>
<path d="M12.634 20.7273C12.9764 21.0683 12.9776 21.6222 12.6367 21.9647C12.3267 22.276 11.8406 22.3052 11.4975 22.0518L11.3992 21.9673L4.34088 14.9398C4.02864 14.629 4.00023 14.1412 4.25568 13.7981L4.34083 13.6999L11.3992 6.67124C11.7416 6.33027 12.2956 6.33141 12.6366 6.6738C12.9466 6.98507 12.9738 7.4712 12.719 7.81319L12.634 7.91115L6.19867 14.3202L12.634 20.7273V20.7273Z" fill="black"/>
</svg>
