<svg width="64" height="64" viewBox="0 0 64 64" fill="none" xmlns="http://www.w3.org/2000/svg">
<path d="M64 32C64 49.6731 49.6731 64 32 64C14.3269 64 0 49.6731 0 32C0 14.3269 14.3269 0 32 0C49.6731 0 64 14.3269 64 32V32Z" fill="#12D436"/>
<path fill-rule="evenodd" clip-rule="evenodd" d="M31.2508 32.7556C37.6333 39.1364 39.0812 31.7546 43.145 35.8155C47.0628 39.7322 49.3146 40.5169 44.3508 45.4794C43.729 45.979 39.7786 51.9906 25.8954 38.1113C12.0104 24.2302 18.0185 20.2757 18.5183 19.6541C23.4942 14.678 24.2654 16.9428 28.1832 20.8595C32.247 24.9222 24.8682 26.3749 31.2508 32.7556V32.7556Z" fill="white"/>
</svg>
