<svg width="64" height="64" viewBox="0 0 64 64" fill="none" xmlns="http://www.w3.org/2000/svg">
<path d="M64 32C64 49.6731 49.6731 64 32 64C14.3269 64 0 49.6731 0 32C0 14.3269 14.3269 0 32 0C49.6731 0 64 14.3269 64 32V32Z" fill="#12D436"/>
<path fill-rule="evenodd" clip-rule="evenodd" d="M25.7809 22.3999H35.0482C38.9234 22.3999 41.629 25.0704 41.629 28.8974V39.9025C41.629 43.7295 38.9234 46.3999 35.0482 46.3999H25.7809C21.9056 46.3999 19.2 43.7295 19.2 39.9025V28.8974C19.2 25.0704 21.9056 22.3999 25.7809 22.3999ZM47.9328 26.2064C48.6352 25.849 49.4592 25.8864 50.1296 26.3087C50.8 26.7294 51.2 27.4604 51.2 28.2596V40.5413C51.2 41.3421 50.8 42.0716 50.1296 42.4922C49.7632 42.7213 49.3536 42.8383 48.9408 42.8383C48.5968 42.8383 48.2528 42.757 47.9312 42.593L45.5616 41.3973C44.6848 40.9524 44.1408 40.0589 44.1408 39.0665V29.7328C44.1408 28.7387 44.6848 27.8453 45.5616 27.4035L47.9328 26.2064Z" fill="white"/>
</svg>
