<svg width="64" height="64" viewBox="0 0 64 64" fill="none" xmlns="http://www.w3.org/2000/svg">
<path d="M64 32C64 49.6731 49.6731 64 32 64C14.3269 64 0 49.6731 0 32C0 14.3269 14.3269 0 32 0C49.6731 0 64 14.3269 64 32V32Z" fill="#FF4D45"/>
<path fill-rule="evenodd" clip-rule="evenodd" d="M31.9954 30.9358C22.9704 30.937 27.1663 37.1806 21.4212 37.1826C15.8814 37.1834 13.7343 38.2207 13.7352 31.2018C13.8216 30.4089 12.3641 23.3646 31.9952 23.3619C51.6287 23.3592 50.1766 30.4038 50.2627 31.1967C50.263 38.2339 48.1161 37.1777 42.5763 37.1785C36.83 37.1793 41.0204 30.9345 31.9954 30.9358V30.9358Z" fill="white"/>
</svg>
