<svg width="14" height="25" viewBox="0 0 14 25" fill="none" xmlns="http://www.w3.org/2000/svg">
<path d="M5.942 3.098V0.966H7.554V3.098C9.114 3.202 10.336 3.644 11.272 4.398C12.338 5.23 12.988 6.608 13.248 8.48H10.492C10.336 7.362 9.92 6.556 9.27 6.088C8.828 5.75 8.256 5.542 7.554 5.464V11.418C9.478 12.146 10.596 12.588 10.856 12.692C12.65 13.706 13.56 15.136 13.56 17.008C13.56 18.854 12.858 20.232 11.506 21.168C10.466 21.844 9.166 22.234 7.554 22.338V24.626H5.942V22.338C4.174 22.234 2.822 21.714 1.886 20.804C0.794 19.764 0.196 18.204 0.0400001 16.072H2.848C2.952 17.476 3.29 18.49 3.914 19.088C4.382 19.556 5.058 19.842 5.942 19.946V13.602L3.004 12.51C1.184 11.548 0.274 10.118 0.274 8.194C0.274 6.504 0.924 5.204 2.224 4.294C3.212 3.566 4.434 3.176 5.942 3.098ZM7.554 14.174V19.946C8.386 19.842 9.062 19.608 9.634 19.244C10.362 18.724 10.752 18.022 10.752 17.112C10.752 15.916 9.842 14.98 8.022 14.356C7.866 14.304 7.71 14.226 7.554 14.174ZM5.942 10.82V5.438C5.214 5.49 4.616 5.698 4.174 6.01C3.446 6.478 3.108 7.206 3.108 8.194C3.108 9.26 4.018 10.118 5.838 10.794C5.864 10.794 5.89 10.82 5.942 10.82Z" fill="#212121"/>
</svg>
