<svg width="14" height="16" viewBox="0 0 14 16" fill="none" xmlns="http://www.w3.org/2000/svg">
<path d="M12.6167 4.06543C12.6011 4.15994 12.5833 4.25719 12.5633 4.35719C11.8866 7.72402 9.56963 8.88762 6.6115 8.88762H5.10504C4.74321 8.88844 4.43615 9.14325 4.38205 9.48757L3.61067 14.2262L3.39221 15.5686C3.3751 15.6758 3.40713 15.7849 3.48001 15.8677C3.5529 15.9504 3.65949 15.9987 3.77221 16H6.44427C6.76114 15.9993 7.03035 15.7768 7.07902 15.4754L7.10535 15.3439L7.60845 12.2517L7.64119 12.0826C7.68922 11.7807 7.9586 11.5574 8.27594 11.5566H8.67514C11.264 11.5566 13.2906 10.5382 13.8826 7.59253C14.1303 6.36181 14.0022 5.33381 13.3475 4.61127C13.1402 4.38801 12.8923 4.20303 12.616 4.06543L12.6167 4.06543Z" fill="#179BD7"/>
<path d="M11.9077 3.79174C11.6914 3.73131 11.4713 3.68419 11.2488 3.65066C10.8095 3.58527 10.3655 3.55389 9.92095 3.55683H5.89684C5.57928 3.55712 5.30956 3.78062 5.26209 4.08281L4.40603 9.3351L4.38184 9.48783C4.43593 9.14351 4.743 8.8887 5.10482 8.88788H6.61129C9.56942 8.88788 11.8864 7.7236 12.5631 4.35745C12.5838 4.25745 12.6008 4.1602 12.6158 4.06569C12.3905 3.95047 12.1532 3.85864 11.9077 3.79174Z" fill="#222D65"/>
<path d="M5.26216 4.08184C5.30939 3.77962 5.57936 3.5562 5.89691 3.55654H9.92102C10.3978 3.55654 10.8433 3.58668 11.2489 3.65037C11.5243 3.69215 11.7954 3.75516 12.0601 3.83803C12.2593 3.90172 12.4451 3.97774 12.6166 4.06541C12.818 2.82099 12.6151 1.9738 11.9199 1.20606C11.1542 0.361613 9.7723 0 8.00397 0H2.86905C2.50826 0 2.20014 0.254773 2.14392 0.600634L0.00555948 13.7317C-0.0148516 13.855 0.0215153 13.9808 0.105184 14.0762C0.189153 14.1707 0.311548 14.2255 0.440348 14.2262H3.61054L4.40611 9.33482L5.26216 4.08184Z" fill="#253B80"/>
</svg>
