<svg width="24" height="24" viewBox="0 0 24 24" fill="none" xmlns="http://www.w3.org/2000/svg">
<mask id="mask0_0_7766" style="mask-type:luminance" maskUnits="userSpaceOnUse" x="0" y="0" width="24" height="24">
<path fill-rule="evenodd" clip-rule="evenodd" d="M0 0H24V24H0V0Z" fill="white"/>
</mask>
<g mask="url(#mask0_0_7766)">
<path d="M23 12C23 5.925 18.075 1 12 1C5.925 1 1 5.925 1 12C1 18.075 5.925 23 12 23C18.075 23 23 18.075 23 12Z" fill="#9E9E9E"/>
<path d="M18.0002 12.1339C18.0002 11.6403 17.9594 11.2804 17.871 10.9072H12.1226V13.1338H15.4967C15.4288 13.6873 15.0614 14.5206 14.245 15.0805L14.2335 15.1549L16.051 16.5348L16.1771 16.5471C17.3333 15.5005 18.0002 13.9604 18.0002 12.1337" fill="white"/>
<path d="M12.1222 17.9997C13.7754 17.9997 15.1631 17.4664 16.1768 16.5464L14.2446 15.0798C13.7279 15.433 13.0336 15.6798 12.1222 15.6798C10.5033 15.6798 9.12915 14.6332 8.63926 13.1865L8.56749 13.1924L6.67763 14.6258L6.65283 14.693C7.65975 16.6531 9.72761 17.9997 12.1222 17.9997" fill="white"/>
<path d="M8.63944 13.1866C8.50566 12.8046 8.43671 12.4037 8.43534 11.9998C8.43534 11.5865 8.51024 11.1865 8.63265 10.813L8.62926 10.7337L6.71565 9.27734L6.65301 9.3065C6.22429 10.1422 6.00068 11.0645 6 11.9998C6 12.9667 6.23803 13.8798 6.65301 14.6932L8.63944 13.1866" fill="white"/>
<path d="M12.1225 8.31989C13.2721 8.31989 14.0476 8.80663 14.4897 9.21332L16.218 7.56024C15.1565 6.5934 13.7756 6 12.123 6C9.7281 6 7.65998 7.34666 6.65332 9.30668L8.63296 10.8132C9.12964 9.36678 10.5038 8.31989 12.1227 8.31989" fill="white"/>
</g>
</svg>
