<svg width="24" height="24" viewBox="0 0 24 24" fill="none" xmlns="http://www.w3.org/2000/svg">
<mask id="mask0_0_9610" style="mask-type:luminance" maskUnits="userSpaceOnUse" x="0" y="0" width="24" height="24">
<path fill-rule="evenodd" clip-rule="evenodd" d="M0 0H24V24H0V0Z" fill="white"/>
</mask>
<g mask="url(#mask0_0_9610)">
<path fill-rule="evenodd" clip-rule="evenodd" d="M18.4397 4H5.61207C4.17173 4 3 5.17173 3 6.61207V17.3879C3 18.8283 4.17173 20 5.61207 20H18.4397C19.88 20 21.0518 18.8283 21.0518 17.3879V6.61207C21.0518 5.17173 19.88 4 18.4397 4ZM4.30603 10.5404H11.8464C12.7415 10.5404 13.4698 11.2687 13.4698 12.1638C13.4698 13.0589 12.7415 13.7872 11.8464 13.7872H4.30603V10.5404ZM18.4397 18.6937C19.1598 18.6937 19.7457 18.1078 19.7457 17.3877V6.61207C19.7457 5.89201 19.1598 5.30603 18.4397 5.30603H5.61207C4.89201 5.30603 4.30603 5.89201 4.30603 6.61207V9.23436H11.8464C13.4618 9.23436 14.7759 10.5485 14.7759 12.1638C14.7759 13.7791 13.4618 15.0932 11.8464 15.0932H4.30603V17.3877C4.30603 18.1078 4.89201 18.6937 5.61207 18.6937H18.4397Z" fill="#616161"/>
<path d="M10.6342 12.164C10.6342 12.671 11.0452 13.0819 11.5521 13.0819C12.0591 13.0819 12.4701 12.671 12.4701 12.164C12.4701 11.6571 12.0591 11.2461 11.5521 11.2461C11.0452 11.2461 10.6342 11.6571 10.6342 12.164Z" fill="#616161"/>
</g>
</svg>
