<svg width="20" height="20" viewBox="0 0 20 20" fill="none" xmlns="http://www.w3.org/2000/svg">
<g id="Iconly/Light-Outline/Close Square">
<mask id="mask0_0_4678" style="mask-type:luminance" maskUnits="userSpaceOnUse" x="0" y="0" width="20" height="20">
<path id="&#232;&#183;&#175;&#229;&#190;&#132;" fill-rule="evenodd" clip-rule="evenodd" d="M0 0H20V20H0V0Z" fill="white"/>
</mask>
<g mask="url(#mask0_0_4678)">
<g id="Close Square">
<g id="&#231;&#188;&#150;&#231;&#187;&#132; 2">
<path id="Fill 1" fill-rule="evenodd" clip-rule="evenodd" d="M9.55724 6.72739C9.67038 6.61425 9.82653 6.54413 9.99918 6.54472C10.3445 6.54472 10.6238 6.82403 10.6238 7.16933V12.8168C10.6238 13.1621 10.3445 13.4414 9.99918 13.4414C9.65388 13.4414 9.37457 13.1621 9.37457 12.8168V7.16933C9.37398 6.99668 9.4441 6.84052 9.55724 6.72739V6.72739Z" fill="white"/>
<path id="Fill 3" fill-rule="evenodd" clip-rule="evenodd" d="M6.7306 9.55063C6.84374 9.4375 6.99989 9.36737 7.17254 9.36796L12.8253 9.36855C13.1706 9.36855 13.4499 9.64786 13.4499 9.99316C13.4493 10.3391 13.17 10.6184 12.8253 10.6178L7.17254 10.6172C6.82724 10.6172 6.54793 10.3379 6.54793 9.99258C6.54734 9.81992 6.61805 9.66318 6.7306 9.55063V9.55063Z" fill="white"/>
</g>
<path id="Fill 5" fill-rule="evenodd" clip-rule="evenodd" d="M6.38752 18.3334H13.6109C16.4359 18.3334 18.3334 16.3517 18.3334 13.4034V6.59669C18.3334 3.64835 16.4359 1.66669 13.6117 1.66669H6.38752C3.56335 1.66669 1.66669 3.64835 1.66669 6.59669V13.4034C1.66669 16.3517 3.56335 18.3334 6.38752 18.3334ZM2.91669 6.59669C2.91669 4.36085 4.27919 2.91669 6.38752 2.91669H13.6117C15.72 2.91669 17.0834 4.36085 17.0834 6.59669V13.4034C17.0834 15.6392 15.72 17.0834 13.6109 17.0834H6.38752C4.27919 17.0834 2.91669 15.6392 2.91669 13.4034V6.59669Z" fill="white"/>
</g>
</g>
</g>
</svg>
