<svg width="30" height="30" viewBox="0 0 30 30" fill="none" xmlns="http://www.w3.org/2000/svg">
<circle cx="15" cy="15" r="15" fill="#F4F4F4"/>
<path d="M10.3482 15C10.3482 14.4804 10.4369 13.982 10.5938 13.515L7.8391 11.4558C7.28564 12.5553 6.99823 13.7692 7.00001 15C7.00001 16.2737 7.30153 17.4751 7.83773 18.5415L10.591 16.4789C10.4305 16.0023 10.3485 15.5029 10.3482 15" fill="#FBBC05"/>
<path d="M15.186 10.2728C16.3389 10.2728 17.3806 10.6724 18.1992 11.3269L20.5807 8.99983C19.1297 7.76366 17.2694 7 15.186 7C11.9511 7 9.17049 8.81028 7.83887 11.4558L10.5949 13.515C11.2293 11.629 13.0385 10.2728 15.186 10.2728" fill="#EA4335"/>
<path d="M15.186 19.7272C13.0378 19.7272 11.2286 18.3711 10.5935 16.4851L7.83887 18.5443C9.16981 21.1898 11.9504 23.0001 15.186 23.0001C17.1821 23.0001 19.0881 22.3066 20.5193 21.0064L17.9038 19.0277C17.1664 19.4825 16.2373 19.7272 15.1853 19.7272" fill="#34A853"/>
<path d="M23 15C23 14.5275 22.9249 14.0182 22.8138 13.5457H15.1855V16.6364H19.5761C19.3571 17.6905 18.7595 18.5006 17.9047 19.0276L20.5196 21.0063C22.0224 19.6413 23 17.608 23 15" fill="#4285F4"/>
</svg>
