<svg width="20" height="21" viewBox="0 0 20 21" fill="none" xmlns="http://www.w3.org/2000/svg">
<path fill-rule="evenodd" clip-rule="evenodd" d="M11.0066 2.35114L10.9998 2.32687C13.4131 1.57333 16.1549 2.11673 18.071 4.01862C19.875 5.81525 20.3199 8.47984 19.7923 10.7914C19.7911 10.8665 19.7808 10.9422 19.7609 11.0167C19.6751 11.3385 19.4237 11.5899 19.1019 11.6757C18.7801 11.7616 18.4369 11.6688 18.2022 11.4325C17.9659 11.1978 17.8731 10.8546 17.9589 10.5328C17.9951 10.397 18.0608 10.2738 18.1488 10.1702C18.4758 8.50994 18.0927 6.54065 16.8143 5.26886C15.495 3.95644 13.6487 3.48958 11.955 3.86827C11.8368 3.99918 11.6817 4.09607 11.5055 4.1433C11.1845 4.22932 10.842 4.13756 10.607 3.90257C10.372 3.66759 10.2802 3.32509 10.3662 3.00409C10.4506 2.68887 10.6939 2.44141 11.0066 2.35114ZM16.6876 10.3389C16.8281 10.1983 16.918 10.0263 16.9573 9.84556L16.9662 9.84794C17.1267 8.56772 16.712 7.23109 15.7246 6.25008C14.7225 5.25681 13.3031 4.8644 11.9998 5.04098L12.0043 5.06696C11.9367 5.0708 11.8691 5.08154 11.8023 5.09945C11.4572 5.19192 11.1876 5.46147 11.0952 5.80656C11.0027 6.15166 11.1014 6.51986 11.354 6.77247C11.6291 7.04755 12.0246 7.12885 12.3708 7.01639C13.0528 6.93596 13.7651 7.15788 14.288 7.67745C14.8089 8.19494 15.031 8.89881 14.9545 9.57571L14.9813 9.58291C14.968 9.86184 15.0724 10.1375 15.2751 10.3389C15.6652 10.7289 16.2976 10.7289 16.6876 10.3389Z" fill="#FF4D67"/>
<path d="M19.7419 17.9883C19.7823 17.9153 19.8137 17.8355 19.8339 17.7512C19.9416 17.3636 20 16.9555 20 16.5314C20 14.0509 18.0202 12.0401 15.578 12.0401C13.5062 12.0401 11.7666 13.4901 11.2862 15.4439C8.55219 14.2037 6.43098 11.8052 5.54209 8.8505C7.44108 8.34665 8.844 6.59342 8.844 4.50505V4.46401C8.844 1.99946 6.87542 0 4.44893 0C3.83614 0 3.25253 0.127673 2.72278 0.357942C1.12458 1.03735 0 2.63782 0 4.50733C0 4.57116 0.00224467 4.635 0.00448934 4.69884C0.00224467 4.80827 0 4.91771 0 5.02714C0 13.8617 7.05275 21 15.7508 21C15.8159 21 15.881 20.9954 15.9439 20.9954C16.0202 20.9932 16.0965 20.9795 16.1661 20.9567C17.8361 20.7333 19.2076 19.5591 19.7419 17.9883Z" fill="#FF4D67"/>
</svg>
