<svg width="28" height="28" viewBox="0 0 28 28" fill="none" xmlns="http://www.w3.org/2000/svg">
<mask id="mask0_0_7343" style="mask-type:luminance" maskUnits="userSpaceOnUse" x="0" y="0" width="28" height="28">
<path fill-rule="evenodd" clip-rule="evenodd" d="M0 0H28V28H0V0Z" fill="white"/>
</mask>
<g mask="url(#mask0_0_7343)">
<path fill-rule="evenodd" clip-rule="evenodd" d="M14 25.9999C12.38 25.9999 10.8083 25.6832 9.33001 25.0582C7.90439 24.455 6.60892 23.5817 5.51503 22.4864C3.25901 20.2389 1.99368 17.1837 2.00005 13.9992C1.99375 10.8151 3.25911 7.76043 5.51503 5.51362C7.76165 3.25769 10.8163 1.99277 14 2.00006C17.1834 1.99639 20.2373 3.26072 22.4866 5.51362C24.7419 7.76071 26.0067 10.8154 25.9999 13.9992C26.0077 17.1836 24.7428 20.2392 22.4866 22.4864C20.2396 24.7427 17.1842 26.0077 14 25.9999ZM14 3.84518C8.39542 3.85161 3.85388 8.39421 3.84837 13.9992C3.85388 19.6041 8.39542 24.1467 14 24.1531C19.6052 24.1476 24.1478 19.6048 24.1533 13.9992C24.1459 8.39432 19.6044 3.85253 14 3.84518ZM13.0767 21.2013C13.0803 21.7095 13.4918 22.1203 14 22.123C14.2454 22.1235 14.481 22.0261 14.6545 21.8526C14.8281 21.679 14.9254 21.4434 14.925 21.198V19.8095L15.0633 19.7745C15.8393 19.5897 16.5356 19.1609 17.05 18.5511C17.5416 17.9461 17.7583 17.2377 17.6783 16.5027C17.5966 15.7643 17.3583 15.2426 16.885 14.7609C16.4433 14.3142 15.7833 13.8808 14.6017 13.2674L14.2483 13.0858C12.71 12.2891 12.2217 11.869 12.1583 11.2923C12.1404 11.0159 12.241 10.7449 12.435 10.5473C12.7767 10.1656 13.365 9.93724 14.005 9.93724C14.5507 9.93857 15.0846 10.0965 15.5433 10.3923C15.7376 10.5078 15.9158 10.6485 16.0733 10.8106C16.4111 11.1834 16.9851 11.2171 17.3642 10.8865C17.7434 10.5559 17.7882 9.98268 17.465 9.59721C17.3333 9.44721 17.0383 9.14885 16.5233 8.82717C16.0733 8.54381 15.585 8.33713 15.065 8.21379L14.925 8.18046V6.80037C14.8956 6.31101 14.4902 5.9292 14 5.9292C13.5098 5.9292 13.1044 6.31101 13.075 6.80037V8.18712L12.9383 8.22213C12.1333 8.42547 11.4267 8.8605 10.95 9.44721C10.469 10.0152 10.2425 10.7558 10.3233 11.4957C10.4033 12.2357 10.64 12.7574 11.115 13.2391C11.555 13.6858 12.2167 14.1175 13.3983 14.7309L13.7533 14.9126C15.29 15.7109 15.7783 16.1293 15.8416 16.7077C15.8609 16.9839 15.7608 17.2552 15.5666 17.4527C15.225 17.8327 14.6383 18.0611 13.9967 18.0611C13.4583 18.0611 12.9417 17.9094 12.4583 17.6077C12.1933 17.441 12.0067 17.2777 11.93 17.1894C11.5949 16.8046 11.0114 16.7643 10.6267 17.0994C10.2419 17.4344 10.2016 18.018 10.5367 18.4028C10.8114 18.7039 11.1286 18.9633 11.4783 19.1728C11.9267 19.4575 12.4197 19.6648 12.9367 19.7862L13.0767 19.8212V21.2013Z" fill="#212121"/>
</g>
</svg>
