<svg width="36" height="36" viewBox="0 0 36 36" fill="none" xmlns="http://www.w3.org/2000/svg">
<path fill-rule="evenodd" clip-rule="evenodd" d="M12.6988 7.85437C12.364 8.30628 12.4025 8.95091 12.8254 9.36C13.2757 9.81 14.011 9.81 14.4613 9.36L16.8475 6.96V13.17H19.155V22.3269L19.1443 22.4879C19.0668 23.066 18.5775 23.502 18 23.502C17.355 23.502 16.845 22.9831 16.845 22.3269V13.1699H9.66L9.34674 13.1773C5.81687 13.344 3 16.3134 3 19.9308V27.3785L3.00726 27.6972C3.17115 31.2895 6.09043 34.1699 9.675 34.1699H26.34L26.6533 34.1625C30.1831 33.9958 33 31.026 33 27.3937V19.9613L32.9927 19.6413C32.828 16.0359 29.895 13.1699 26.325 13.1699H19.1587V6.96L21.5449 9.36L21.6743 9.47157C22.1265 9.80628 22.7714 9.76909 23.1807 9.36C23.4058 9.135 23.5259 8.835 23.5259 8.535C23.5259 8.25 23.4058 7.95 23.1807 7.725L18.8135 3.345L18.6773 3.22272C18.4833 3.0768 18.2432 3 18.0031 3C17.6879 3 17.4028 3.12 17.1777 3.345L12.8104 7.725L12.6988 7.85437ZM19.1587 13.1699H19.155H19.1587Z" fill="white"/>
</svg>
