<svg width="28" height="28" viewBox="0 0 28 28" fill="none" xmlns="http://www.w3.org/2000/svg">
<mask id="mask0_0_7295" style="mask-type:luminance" maskUnits="userSpaceOnUse" x="0" y="0" width="28" height="28">
<path fill-rule="evenodd" clip-rule="evenodd" d="M0 0H28V28H0V0Z" fill="white"/>
</mask>
<g mask="url(#mask0_0_7295)">
<path fill-rule="evenodd" clip-rule="evenodd" d="M10.5894 4.00171H11.8284C13.6199 4.00171 15.0465 4.00171 16.1649 4.15598C17.3219 4.31539 18.2746 4.65307 19.028 5.42441C19.7815 6.19575 20.1113 7.17107 20.2671 8.3555C20.2838 8.48063 20.2989 8.60919 20.3123 8.74289C20.977 8.19438 21.5563 7.74186 22.0636 7.42818C22.8271 6.95509 23.7045 6.61913 24.5852 7.06822C25.4542 7.50874 25.7455 8.41892 25.8727 9.33425C26 10.253 26 11.4991 26 13.0333V14.9667C26 16.5009 26 17.7487 25.8727 18.6658C25.7455 19.5811 25.4542 20.493 24.5835 20.9335C23.7045 21.3792 22.8271 21.0449 22.0636 20.5735C21.5563 20.2581 20.977 19.8073 20.3123 19.2571C20.2993 19.3871 20.2842 19.5168 20.2671 19.6462C20.1113 20.8289 19.7815 21.806 19.028 22.5773C18.2746 23.3486 17.3219 23.6863 16.1649 23.8457C15.0465 24 13.6199 24 11.8284 24H10.5894C8.7995 24 7.37296 24 6.25283 23.8457C5.09753 23.6863 4.14316 23.3486 3.3897 22.5773C2.63625 21.806 2.3064 20.8289 2.15069 19.6462C2 18.4995 2 17.0374 2 15.2067V12.7933C2 10.9626 2 9.50223 2.15069 8.35379C2.3064 7.17107 2.63625 6.19404 3.3897 5.42269C4.14316 4.65135 5.09753 4.31539 6.25283 4.15427C7.37296 4 8.7995 4 10.5894 4V4.00171ZM20.4094 17.1248C21.5312 18.071 22.3148 18.724 22.9293 19.1046C23.5839 19.5091 23.7731 19.432 23.8418 19.396C23.9205 19.3565 24.103 19.228 24.2152 18.4258C24.3223 17.6424 24.3257 16.518 24.3257 14.8948V13.1052C24.3257 11.4803 24.3223 10.3558 24.2152 9.57251C24.103 8.77031 23.9205 8.64176 23.8418 8.60062C23.7748 8.56634 23.5839 8.4892 22.9293 8.89201C22.3148 9.27425 21.5295 9.92904 20.4094 10.8735C20.4177 11.4614 20.4177 12.1008 20.4177 12.7933V15.205C20.4177 15.8958 20.4177 16.5351 20.4094 17.1248ZM4.57346 6.63627C4.96526 6.23517 5.5044 5.98834 6.47551 5.85465V5.85293C7.47007 5.7158 8.7861 5.7158 10.6513 5.7158H11.7681C13.6316 5.7158 14.9477 5.71752 15.9422 5.85465C16.9134 5.98834 17.4542 6.23517 17.8443 6.63627C18.2361 7.03565 18.4772 7.5893 18.6095 8.58348C18.7434 9.60165 18.7434 10.9472 18.7434 12.8567V15.1433C18.7434 17.0511 18.7417 18.3984 18.6078 19.4165C18.4772 20.4107 18.2361 20.9643 17.8443 21.3637C17.4542 21.7648 16.9134 22.0117 15.9422 22.1471C14.9477 22.2842 13.6334 22.2842 11.7682 22.2842H11.7681H10.6513C8.7861 22.2842 7.47175 22.2825 6.47551 22.1454C5.5044 22.0134 4.96526 21.7648 4.57346 21.3637C4.18334 20.9643 3.94056 20.4107 3.80996 19.4165C3.67602 18.4001 3.67602 17.0528 3.67602 15.1433V12.8567C3.67602 10.9489 3.67602 9.60165 3.80996 8.58348C3.94056 7.5893 4.18334 7.03565 4.57346 6.63627Z" fill="#212121"/>
</g>
</svg>
