<svg width="30" height="30" viewBox="0 0 30 30" fill="none" xmlns="http://www.w3.org/2000/svg">
<circle cx="15" cy="15" r="15" fill="#F4F4F4"/>
<path fill-rule="evenodd" clip-rule="evenodd" d="M14.9081 15.1352L21.987 10.8544C21.8737 9.80947 21.0267 9 19.9995 9H10.0005C8.9399 9 8.07244 9.8659 8.00557 10.9595L14.9081 15.1352ZM22 18.9043V12.3877L15.3148 16.4292C15.3122 16.4309 15.3098 16.4325 15.3074 16.4341C15.3013 16.4382 15.2955 16.442 15.2888 16.4448C15.0919 16.5966 14.8189 16.6219 14.5923 16.4856L8 12.4986V18.9043C8 20.0621 8.89532 21 10.0005 21H19.9995C21.1047 21 22 20.0621 22 18.9043Z" fill="black"/>
</svg>
