<svg width="30" height="30" viewBox="0 0 30 30" fill="none" xmlns="http://www.w3.org/2000/svg">
<circle cx="15" cy="15" r="15" fill="#F4F4F4"/>
<path d="M20 7.44964C20 7.3318 19.9521 7.2188 19.8669 7.13547C19.7816 7.05215 19.666 7.00534 19.5455 7.00534H17.2727C14.8903 6.88934 12.8593 8.67598 12.7273 11.004V13.4032H10.4545C10.2035 13.4032 10 13.6021 10 13.8475V16.1578C10 16.4032 10.2035 16.6021 10.4545 16.6021H12.7273V22.5557C12.7273 22.8011 12.9308 23 13.1818 23H15.9091C16.0296 23 16.1453 22.9532 16.2305 22.8699C16.3157 22.7865 16.3636 22.6735 16.3636 22.5557V16.6021H18.7455C18.9534 16.6051 19.1369 16.4697 19.1909 16.2734L19.8455 13.963C19.8821 13.83 19.8535 13.6878 19.7681 13.5782C19.6827 13.4686 19.5501 13.404 19.4091 13.4032H16.3636V11.004C16.4105 10.5482 16.8041 10.202 17.2727 10.2043H19.5455C19.7965 10.2043 20 10.0054 20 9.75998V7.44964Z" fill="#177FED"/>
</svg>
