<svg width="24" height="24" viewBox="0 0 24 24" fill="none" xmlns="http://www.w3.org/2000/svg">
<path fill-rule="evenodd" clip-rule="evenodd" d="M2 12.015C2 6.74712 6.21 2 12.02 2C17.7 2 22 6.65699 22 11.985C22 18.1642 16.96 22 12 22C10.36 22 8.54 21.5593 7.08 20.698C6.57 20.3876 6.14 20.1572 5.59 20.3375L3.57 20.9384C3.06 21.0986 2.6 20.698 2.75 20.1572L3.42 17.9139C3.53 17.6034 3.51 17.2729 3.35 17.0125C2.49 15.4301 2 13.6975 2 12.015ZM10.7 12.015C10.7 12.7261 11.27 13.297 11.98 13.307C12.69 13.307 13.26 12.7261 13.26 12.0251C13.26 11.314 12.69 10.7431 11.98 10.7431C11.28 10.7331 10.7 11.314 10.7 12.015ZM7.3701 13.3069C6.6701 13.3069 6.0901 12.7261 6.0901 12.025C6.0901 11.314 6.6601 10.7431 7.3701 10.7431C8.0801 10.7431 8.6501 11.314 8.6501 12.025C8.6501 12.7261 8.0801 13.2969 7.3701 13.3069ZM15.3101 12.025C15.3101 12.7261 15.8801 13.3069 16.5901 13.3069C17.3001 13.3069 17.8701 12.7261 17.8701 12.025C17.8701 11.314 17.3001 10.7431 16.5901 10.7431C15.8801 10.7431 15.3101 11.314 15.3101 12.025Z" fill="url(#paint0_linear_0_10527)"/>
<defs>
<linearGradient id="paint0_linear_0_10527" x1="4.16346" y1="11.9445" x2="11.4874" y2="23.7389" gradientUnits="userSpaceOnUse">
<stop stop-color="#FFA770"/>
<stop offset="1" stop-color="#D247FE"/>
</linearGradient>
</defs>
</svg>
