<svg width="24" height="24" viewBox="0 0 24 24" fill="none" xmlns="http://www.w3.org/2000/svg">
<mask id="mask0_0_6892" style="mask-type:luminance" maskUnits="userSpaceOnUse" x="0" y="0" width="24" height="24">
<path fill-rule="evenodd" clip-rule="evenodd" d="M0 0H24V24H0V0Z" fill="white"/>
</mask>
<g mask="url(#mask0_0_6892)">
<path d="M22 12C22 6.47727 17.5227 2 12 2C6.47727 2 2 6.47727 2 12C2 17.5227 6.47727 22 12 22C17.5227 22 22 17.5227 22 12Z" fill="#FF4D67"/>
<path fill-rule="evenodd" clip-rule="evenodd" d="M15.8904 9.38289H8.55581C8.55581 9.38289 7.9977 9.26868 7.9977 8.93276L16.0056 8.14838V7.47653C16.0056 7.47653 15.9052 6.86347 15.0079 7.02807L7.89233 8.26259C7.89233 8.26259 7 8.37512 7 9.49711V15.8797C7.00131 16.1784 7.119 16.4644 7.32715 16.6745C7.5353 16.8847 7.81681 17.0017 8.10965 17H15.8904C16.1832 17.0017 16.4647 16.8847 16.6728 16.6745C16.881 16.4644 16.9987 16.1784 17 15.8797V10.5049C17 10.2056 16.8828 9.91864 16.6744 9.70793C16.466 9.49723 16.1837 9.38021 15.8904 9.38289ZM12.2684 13.6827C12.1959 13.7021 12.1209 13.71 12.0461 13.7062H11.5522C11.4423 13.6975 11.3337 13.7345 11.2509 13.8087C11.1831 13.8779 11.1467 13.9729 11.1505 14.0707V14.9525C11.145 15.0697 11.0948 15.18 11.0105 15.2599C10.9285 15.3582 10.8078 15.4141 10.6813 15.4127H10.3339C10.2434 15.4137 10.1564 15.3767 10.0935 15.3103C10.0134 15.2053 9.97573 15.0731 9.98815 14.9407C9.98405 14.8899 9.98405 14.8388 9.98815 14.7879V14.7022V14.5343V14.1245C10.0012 14.0067 9.97386 13.888 9.91077 13.7885C9.83912 13.7114 9.73594 13.6734 9.63253 13.6861H9.13862C8.99868 13.6861 8.90978 13.6575 8.87685 13.6004C8.84392 13.5433 8.87685 13.4526 8.96576 13.3334C9.01497 13.2673 9.06772 13.1941 9.12484 13.1148L9.12487 13.1148L9.12488 13.1148C9.17093 13.0508 9.21981 12.983 9.27198 12.9118C9.34272 12.8152 9.41165 12.7125 9.48096 12.6092L9.48097 12.6092L9.48098 12.6092C9.52619 12.5418 9.57157 12.4742 9.61771 12.4079L9.96345 11.904C10.0754 11.736 10.1857 11.5966 10.2927 11.4656C10.3374 11.4141 10.394 11.3748 10.4574 11.3514C10.5233 11.3256 10.5927 11.3103 10.6632 11.3061C10.7308 11.3048 10.7984 11.3127 10.864 11.3296C10.9174 11.3432 10.9645 11.3753 10.9974 11.4203C11.0698 11.5446 11.1538 11.6873 11.2476 11.8419L11.2555 11.8549C11.3468 12.0053 11.44 12.1586 11.544 12.3088C11.5835 12.3658 11.6252 12.4238 11.6672 12.482L11.6672 12.482C11.7388 12.5815 11.8109 12.6816 11.8732 12.7791C11.972 12.9336 12.0626 13.0747 12.1515 13.2107L12.2914 13.4375C12.3199 13.4804 12.339 13.5291 12.3474 13.5803C12.3424 13.6441 12.326 13.6659 12.2684 13.6827ZM14.6342 13.4566C14.6318 13.8889 14.9727 14.2417 15.3964 14.2454V14.2471C15.8224 14.2462 16.1683 13.8956 16.1719 13.461C16.1719 13.0287 15.829 12.6779 15.4052 12.6767C14.9814 12.6754 14.6366 13.0242 14.6342 13.4566Z" fill="white"/>
</g>
</svg>
