<svg width="24" height="22" viewBox="0 0 24 22" fill="none" xmlns="http://www.w3.org/2000/svg">
<path fill-rule="evenodd" clip-rule="evenodd" d="M10.9048 3.86259e-05C15.3006 -0.00825576 19.2701 2.64953 20.968 6.73789C21.7391 8.58875 21.9924 10.6173 21.7004 12.6031H19.4837V9.95649C19.4838 9.81367 19.4016 9.68379 19.2731 9.62366C19.1447 9.56353 18.9933 9.58409 18.8851 9.67635L11.0779 16.3438C10.5884 16.762 10.3061 17.3762 10.3063 18.0231V20.5333C10.306 21.2513 10.8213 21.8639 11.5237 21.9809C11.4074 21.9883 11.291 21.9927 11.1739 21.9956L10.9128 22H10.8612C9.28304 21.9927 7.72669 21.6407 6.29834 20.9697L5.99434 20.8215H2.2911C1.7151 20.8206 1.23332 20.3801 1.1762 19.8022L1.17111 19.6907V15.9595C-0.263732 13.0871 -0.38588 9.72684 0.836569 6.75623C2.48968 2.75826 6.31887 0.113519 10.6132 0.00370531L10.8561 3.86259e-05H10.9048ZM7.18997 9.53335C6.67031 9.53335 6.19013 9.8129 5.9303 10.2667C5.67048 10.7205 5.67048 11.2796 5.9303 11.7334C6.19013 12.1871 6.67031 12.4667 7.18997 12.4667C7.99328 12.4667 8.6445 11.81 8.6445 11C8.6445 10.19 7.99328 9.53335 7.18997 9.53335ZM10.2939 10.2667C10.5537 9.8129 11.0339 9.53335 11.5536 9.53335C12.3569 9.53335 13.0081 10.19 13.0081 11C13.0081 11.81 12.3569 12.4667 11.5536 12.4667C11.0339 12.4667 10.5537 12.1871 10.2939 11.7334C10.0341 11.2796 10.0341 10.7205 10.2939 10.2667Z" fill="#FF4D67"/>
<path fill-rule="evenodd" clip-rule="evenodd" d="M18.226 14.4204V13.396V13.3952C18.2255 13.2527 18.1431 13.1233 18.0148 13.0636C17.8864 13.0038 17.7354 13.0245 17.6274 13.1166L13.0908 17.0032H23.9998V14.4204H18.226ZM17.41 20.3194V21.3438C17.4102 21.4865 17.4925 21.6161 17.6209 21.6761C17.7493 21.736 17.9005 21.7154 18.0085 21.6232L22.5452 17.7366H11.9999C11.799 17.7366 11.6362 17.9007 11.6362 18.1032V19.9527C11.6362 20.1552 11.799 20.3194 11.9999 20.3194H17.41Z" fill="#FF4D67"/>
</svg>
