<svg width="16" height="16" viewBox="0 0 16 16" fill="none" xmlns="http://www.w3.org/2000/svg">
<g id="Iconly/Light-Outline/Download&#229;&#164;&#135;&#228;&#187;&#189;">
<mask id="mask0_0_10785" style="mask-type:luminance" maskUnits="userSpaceOnUse" x="0" y="0" width="16" height="16">
<path id="&#232;&#183;&#175;&#229;&#190;&#132;" fill-rule="evenodd" clip-rule="evenodd" d="M0 0H16V16H0V0Z" fill="white"/>
</mask>
<g mask="url(#mask0_0_10785)">
<g id="lianjie-5">
<path id="&#232;&#183;&#175;&#229;&#190;&#132;_2" d="M13.3208 2.67918C12.8829 2.2412 12.2985 2 11.6755 2C11.0525 2 10.4681 2.2412 10.0302 2.67918L6.71104 5.99831C6.27306 6.43627 6.03186 7.0206 6.03186 7.64363C6.03186 8.26666 6.27306 8.85098 6.71102 9.28894C7.04877 9.62671 7.47655 9.84921 7.94807 9.93242C7.97152 9.93657 7.99485 9.93858 8.01786 9.93858C8.20781 9.93858 8.37615 9.80239 8.41028 9.60885C8.44857 9.39185 8.30371 9.18491 8.08672 9.14663C7.77726 9.09204 7.49668 8.94614 7.27526 8.72472C6.98798 8.43744 6.82979 8.05351 6.82979 7.64363C6.82979 7.23374 6.98798 6.84982 7.27526 6.56253L7.48616 6.35163C7.48261 6.36654 7.4798 6.38178 7.47793 6.39737C7.45194 6.61618 7.60822 6.81462 7.82703 6.84065C8.17086 6.8815 8.48128 7.0318 8.72475 7.27526C9.01201 7.56252 9.17022 7.94648 9.17022 8.35636C9.17022 8.76624 9.01201 9.1502 8.72475 9.43745L5.40561 12.7566C5.11832 13.0439 4.7344 13.2021 4.32451 13.2021C3.91463 13.2021 3.5307 13.0439 3.24342 12.7566C2.95613 12.4693 2.79795 12.0854 2.79795 11.6755C2.79795 11.2656 2.95613 10.8817 3.24342 10.5944L5.4959 8.34187C5.65171 8.18608 5.65171 7.93344 5.4959 7.77765C5.34011 7.62186 5.08747 7.62186 4.93168 7.77765L2.67918 10.0302C2.2412 10.4681 2 11.0524 2 11.6755C2 12.2985 2.2412 12.8828 2.67918 13.3208C3.11715 13.7588 3.70147 14 4.3245 14C4.94753 14 5.53185 13.7588 5.96981 13.3208L9.28897 10.0017C9.72696 9.5637 9.96815 8.97937 9.96815 8.35635C9.96813 7.73332 9.72693 7.14899 9.28897 6.71103C8.92293 6.34497 8.43718 6.10961 7.92121 6.04827C7.87311 6.04257 7.82601 6.04565 7.78152 6.05627L10.5944 3.2434C10.8817 2.95612 11.2656 2.79793 11.6755 2.79793C12.0854 2.79793 12.4693 2.95612 12.7566 3.2434C13.0439 3.53069 13.202 3.91462 13.202 4.3245C13.202 4.73438 13.0439 5.11831 12.7566 5.40559L10.7601 7.40212C10.6043 7.55791 10.6043 7.81055 10.7601 7.96634C10.9159 8.12213 11.1685 8.12213 11.3243 7.96634L13.3208 5.96981C13.7588 5.53185 14 4.94753 14 4.3245C14 3.70147 13.7588 3.11715 13.3208 2.67918Z" fill="#FB5D5D"/>
</g>
</g>
</g>
</svg>
