<svg width="24" height="24" viewBox="0 0 24 24" fill="none" xmlns="http://www.w3.org/2000/svg">
<mask id="mask0_0_6912" style="mask-type:luminance" maskUnits="userSpaceOnUse" x="0" y="0" width="24" height="24">
<path fill-rule="evenodd" clip-rule="evenodd" d="M0 0H24V24H0V0Z" fill="white"/>
</mask>
<g mask="url(#mask0_0_6912)">
<path d="M22 12C22 6.47727 17.5227 2 12 2C6.47727 2 2 6.47727 2 12C2 17.5227 6.47727 22 12 22C17.5227 22 22 17.5227 22 12Z" fill="#FF4D67"/>
<path fill-rule="evenodd" clip-rule="evenodd" d="M14.863 8.99979C14.863 10.6569 13.5788 12.0004 11.9968 12.0004C10.413 12.0004 9.13054 10.6569 9.13054 8.99979C9.13054 7.34266 10.4139 6 11.9968 6C13.5788 6 14.863 7.34266 14.863 8.99979ZM15.9373 13.8632L15.9452 13.8726C16.6411 14.6815 17.1943 15.7071 16.9348 16.9769C16.6428 17.8072 15.8551 18 15.11 18H8.89023C8.14426 18 7.35825 17.8089 7.0662 16.9769C6.80419 15.7071 7.35825 14.6806 8.05415 13.8726L8.06006 13.8655C8.70883 13.0878 8.9314 12.8211 10.1277 12.7476H13.87C15.0642 12.8193 15.2884 13.0873 15.9373 13.8632Z" fill="white"/>
</g>
</svg>
