<svg width="24" height="24" viewBox="0 0 24 24" fill="none" xmlns="http://www.w3.org/2000/svg">
<g id="Iconly/Light-Outline/Chat">
<mask id="mask0_0_9996" style="mask-type:luminance" maskUnits="userSpaceOnUse" x="0" y="0" width="24" height="24">
<path id="&#232;&#183;&#175;&#229;&#190;&#132;" fill-rule="evenodd" clip-rule="evenodd" d="M0 0H24V24H0V0Z" fill="white"/>
</mask>
<g mask="url(#mask0_0_9996)">
<g id="Chat">
<g id="Group 3">
<mask id="mask1_0_9996" style="mask-type:alpha" maskUnits="userSpaceOnUse" x="1" y="1" width="22" height="22">
<path id="Clip 2" fill-rule="evenodd" clip-rule="evenodd" d="M1 1H22.493V22.4938H1V1V1Z" fill="#CDCDD2"/>
</mask>
<g mask="url(#mask1_0_9996)">
<path id="Fill 1" fill-rule="evenodd" clip-rule="evenodd" d="M7.21944 21.505C8.65844 22.171 10.1964 22.494 11.7244 22.494C14.5274 22.494 17.2944 21.406 19.3494 19.35C23.5414 15.158 23.5414 8.338 19.3494 4.146C17.3214 2.117 14.6214 1 11.7484 1C8.87544 1 6.17644 2.118 4.14844 4.147C0.971437 7.322 0.105437 12.197 1.97844 16.242C2.18244 16.749 2.31544 17.101 2.31544 17.377C2.31544 17.713 2.16444 18.157 2.01744 18.587C1.71944 19.46 1.34944 20.545 2.15144 21.348C2.95603 22.1496 4.04334 21.7764 4.91711 21.4765L4.91844 21.476C5.34444 21.329 5.78544 21.177 6.11344 21.175C6.39844 21.175 6.79544 21.335 7.21944 21.505ZM7.81435 20.128C7.23535 19.895 6.68835 19.675 6.10835 19.675C5.52935 19.679 4.94535 19.881 4.43035 20.057L4.40285 20.0664C3.97409 20.2134 3.34841 20.428 3.21235 20.287C3.07082 20.1455 3.28989 19.5033 3.4359 19.0753L3.43735 19.071C3.61435 18.551 3.81535 17.962 3.81535 17.377C3.81535 16.791 3.58935 16.227 3.35535 15.648C1.73035 12.135 2.47435 7.94 5.20835 5.208C6.95335 3.462 9.27635 2.5 11.7493 2.5C14.2213 2.5 16.5433 3.461 18.2894 5.207C21.8953 8.813 21.8953 14.682 18.2894 18.29C15.5563 21.022 11.3614 21.768 7.81435 20.128Z" fill="#CDCDD2"/>
</g>
</g>
<path id="Fill 4" fill-rule="evenodd" clip-rule="evenodd" d="M15.6964 13.1631C15.1444 13.1631 14.6924 12.7161 14.6924 12.1631C14.6924 11.6101 15.1354 11.1631 15.6874 11.1631H15.6964C16.2484 11.1631 16.6964 11.6101 16.6964 12.1631C16.6964 12.7161 16.2484 13.1631 15.6964 13.1631V13.1631Z" fill="#CDCDD2"/>
<path id="Fill 6" fill-rule="evenodd" clip-rule="evenodd" d="M11.6876 13.1631C11.1356 13.1631 10.6836 12.7161 10.6836 12.1631C10.6836 11.6101 11.1256 11.1631 11.6786 11.1631H11.6876C12.2396 11.1631 12.6876 11.6101 12.6876 12.1631C12.6876 12.7161 12.2396 13.1631 11.6876 13.1631V13.1631Z" fill="#CDCDD2"/>
<path id="Fill 8" fill-rule="evenodd" clip-rule="evenodd" d="M7.67832 13.1631C7.12632 13.1631 6.67432 12.7161 6.67432 12.1631C6.67432 11.6101 7.11732 11.1631 7.66932 11.1631H7.67832C8.23032 11.1631 8.67832 11.6101 8.67832 12.1631C8.67832 12.7161 8.23032 13.1631 7.67832 13.1631V13.1631Z" fill="#CDCDD2"/>
</g>
</g>
</g>
</svg>
