<svg width="36" height="36" viewBox="0 0 36 36" fill="none" xmlns="http://www.w3.org/2000/svg">
<path d="M16.9673 12.0889C18.074 10.9825 19.8685 10.9825 20.9751 12.0889L23.9107 15.0244C25.017 16.1311 25.017 17.9255 23.9107 19.0322L10.772 32.1709C9.66535 33.2768 7.87171 33.277 6.76517 32.1709L3.82962 29.2344C2.7233 28.1277 2.7233 26.3342 3.82962 25.2275L16.9673 12.0889ZM28.9341 24.0693L32.9995 25.6719L28.9341 27.2744L27.3316 31.3398L25.729 27.2744L21.6636 25.6719L25.729 24.0693L27.3316 20.0039L28.9341 24.0693ZM6.63529 27.2305L8.76907 29.3652L16.854 21.2793L14.7202 19.1455L6.63529 27.2305ZM11.9302 7.06543L15.9956 8.66797L11.9302 10.2705L10.3277 14.3359L8.72513 10.2705L4.6597 8.66797L8.72513 7.06543L10.3277 3L11.9302 7.06543ZM28.9341 7.06543L32.9995 8.66797L28.9341 10.2705L27.3316 14.3359L25.729 10.2705H25.73L21.6636 8.66797L25.729 7.06543L27.3316 3L28.9341 7.06543Z" fill="white"/>
</svg>
