<svg width="24" height="24" viewBox="0 0 24 24" fill="none" xmlns="http://www.w3.org/2000/svg">
<mask id="mask0_0_6866" style="mask-type:luminance" maskUnits="userSpaceOnUse" x="0" y="0" width="24" height="24">
<path fill-rule="evenodd" clip-rule="evenodd" d="M0 0H24V24H0V0Z" fill="white"/>
</mask>
<g mask="url(#mask0_0_6866)">
<path d="M22 12C22 6.47727 17.5227 2 12 2C6.47727 2 2 6.47727 2 12C2 17.5227 6.47727 22 12 22C17.5227 22 22 17.5227 22 12Z" fill="#FF4D67"/>
<path fill-rule="evenodd" clip-rule="evenodd" d="M15.1197 8.48231C15.1595 8.64538 15.1734 8.82462 15.179 9.03615C15.2467 9.04231 15.3116 9.05 15.3744 9.05923C15.7965 9.12154 16.1691 9.25769 16.467 9.58615C16.7656 9.91385 16.8891 10.3238 16.9456 10.7877C17 11.2292 17 11.7877 17 12.4646V13.5354C17 14.2123 17 14.7708 16.9456 15.2123C16.8891 15.6762 16.7656 16.0862 16.467 16.4146C16.1691 16.7423 15.7965 16.8785 15.3744 16.9408C14.9732 17 14.4653 17 13.8499 17H11.0571C10.2282 17 9.56052 17 9.03516 16.9223C8.48957 16.8415 8.03049 16.6685 7.6649 16.2685C7.3007 15.8669 7.14372 15.3608 7.06977 14.7608C7 14.1838 7 13.4485 7 12.5369V8.5C7 7.67154 7.60978 7 8.36329 7H12.9715C13.3329 7 13.6015 7 13.8339 7.06846C14.4618 7.25308 14.9516 7.79154 15.1197 8.48231ZM13.5988 8.03385C13.4976 8.00462 13.3608 8 12.908 8H8.36399C8.11352 8 7.91049 8.22386 7.91049 8.5C7.91049 8.77614 8.11352 9 8.36399 9H13.8506L14.2685 9.00077C14.2687 8.91353 14.2598 8.82655 14.242 8.74154C14.1577 8.39585 13.9125 8.12604 13.5988 8.03385ZM13.627 13.0258C13.627 12.4593 14.0436 12 14.5574 12C15.0712 12 15.4878 12.4593 15.4878 13.0258C15.4878 13.5923 15.0712 14.0515 14.5574 14.0515C14.0436 14.0515 13.627 13.5923 13.627 13.0258Z" fill="white"/>
</g>
</svg>
