<svg width="25" height="24" viewBox="0 0 25 24" fill="none" xmlns="http://www.w3.org/2000/svg">
<mask id="mask0_1_487" style="mask-type:luminance" maskUnits="userSpaceOnUse" x="0" y="0" width="25" height="24">
<path fill-rule="evenodd" clip-rule="evenodd" d="M0.5 0H24.5V24H0.5V0Z" fill="white"/>
</mask>
<g mask="url(#mask0_1_487)">
<path fill-rule="evenodd" clip-rule="evenodd" d="M17.2729 0.0120106C17.2219 -0.0449897 15.3844 0.0345107 13.7854 1.77002C12.1864 3.50403 12.4324 5.49304 12.4684 5.54404C12.5044 5.59504 14.7484 5.67454 16.1809 3.65703C17.6134 1.63952 17.3239 0.0705109 17.2729 0.0120106ZM22.2438 17.6116C22.1718 17.4676 18.7564 15.7606 19.0744 12.4786C19.3924 9.19506 21.5868 8.29505 21.6213 8.19755C21.6558 8.10005 20.7258 7.01255 19.7403 6.46204C19.0168 6.07392 18.216 5.85155 17.3959 5.81104C17.2339 5.80654 16.6714 5.66854 15.5149 5.98504C14.7529 6.19354 13.0354 6.86855 12.5629 6.89555C12.0889 6.92255 10.6789 6.11254 9.16237 5.89804C8.19188 5.71054 7.16288 6.09454 6.42638 6.39004C5.69138 6.68405 4.29339 7.52105 3.31539 9.74556C2.33739 11.9686 2.84889 15.4906 3.21489 16.5856C3.58089 17.6791 4.15239 19.4716 5.12438 20.7796C5.98838 22.2556 7.13438 23.2801 7.61288 23.6281C8.09138 23.9761 9.44137 24.2071 10.3774 23.7286C11.1304 23.2666 12.4894 23.0011 13.0264 23.0206C13.5619 23.0401 14.6179 23.2516 15.6994 23.8291C16.5559 24.1246 17.3659 24.0016 18.1774 23.6716C18.9889 23.3401 20.1633 22.0831 21.5343 19.5346C22.0548 18.3496 22.2918 17.7091 22.2438 17.6116Z" fill="black"/>
<path fill-rule="evenodd" clip-rule="evenodd" d="M17.2729 0.0120106C17.2219 -0.0449897 15.3844 0.0345107 13.7854 1.77002C12.1864 3.50403 12.4324 5.49304 12.4684 5.54404C12.5044 5.59504 14.7484 5.67454 16.1809 3.65703C17.6134 1.63952 17.3239 0.0705109 17.2729 0.0120106ZM22.2438 17.6116C22.1718 17.4676 18.7564 15.7606 19.0744 12.4786C19.3924 9.19506 21.5868 8.29505 21.6213 8.19755C21.6558 8.10005 20.7258 7.01255 19.7403 6.46204C19.0168 6.07392 18.216 5.85155 17.3959 5.81104C17.2339 5.80654 16.6714 5.66854 15.5149 5.98504C14.7529 6.19354 13.0354 6.86855 12.5629 6.89555C12.0889 6.92255 10.6789 6.11254 9.16237 5.89804C8.19188 5.71054 7.16288 6.09454 6.42638 6.39004C5.69138 6.68405 4.29339 7.52105 3.31539 9.74556C2.33739 11.9686 2.84889 15.4906 3.21489 16.5856C3.58089 17.6791 4.15239 19.4716 5.12438 20.7796C5.98838 22.2556 7.13438 23.2801 7.61288 23.6281C8.09138 23.9761 9.44137 24.2071 10.3774 23.7286C11.1304 23.2666 12.4894 23.0011 13.0264 23.0206C13.5619 23.0401 14.6179 23.2516 15.6994 23.8291C16.5559 24.1246 17.3659 24.0016 18.1774 23.6716C18.9889 23.3401 20.1633 22.0831 21.5343 19.5346C22.0548 18.3496 22.2918 17.7091 22.2438 17.6116Z" fill="black"/>
</g>
</svg>
