<svg width="24" height="24" viewBox="0 0 24 24" fill="none" xmlns="http://www.w3.org/2000/svg">
<g id="Iconly/Curved/Ticket">
<mask id="mask0_0_10142" style="mask-type:luminance" maskUnits="userSpaceOnUse" x="0" y="0" width="24" height="24">
<path id="&#232;&#183;&#175;&#229;&#190;&#132;" fill-rule="evenodd" clip-rule="evenodd" d="M0 0H24V24H0V0Z" fill="white"/>
</mask>
<g mask="url(#mask0_0_10142)">
<g id="meiyan">
<g id="&#229;&#189;&#162;&#231;&#138;&#182;">
<mask id="path-2-outside-1_0_10142" maskUnits="userSpaceOnUse" x="3" y="3" width="18" height="18" fill="black">
<rect fill="white" x="3" y="3" width="18" height="18"/>
<path fill-rule="evenodd" clip-rule="evenodd" d="M14.6461 6.71437C14.6461 6.71437 17.0649 6.9613 17.4596 9.18368C17.4596 9.18368 18.0021 6.86402 20.0281 6.71624C20.0281 6.71624 17.7065 6.17187 17.4596 4C17.4596 4 17.2127 6.4188 14.6461 6.71437ZM4 18.7953C4 18.7953 5.18228 18.915 5.37496 20C5.37496 20 5.64059 18.8664 6.62832 18.7953C6.62832 18.7953 5.49468 18.5296 5.37496 17.469C5.37496 17.469 5.25336 18.6512 4 18.7953ZM14.5787 14.5058C14.5787 14.5058 14.0849 15.4935 12.506 15.4935C12.506 15.4935 11.4697 15.5927 10.4333 14.6049C10.4333 14.6049 9.92634 13.5966 10.9122 13.8922C10.9122 13.8922 11.5258 14.7527 12.463 14.7527C12.463 14.7527 13.4919 14.7527 13.9857 13.9128C13.9857 13.9128 14.923 13.6658 14.5787 14.5058ZM8.6524 10.8523C8.6524 11.5052 9.02841 12.0365 9.49234 12.0365C9.95627 12.0365 10.3323 11.5071 10.3323 10.8523C10.3323 10.1976 9.95627 9.66632 9.49234 9.66632C9.02841 9.66632 8.6524 10.1976 8.6524 10.8523ZM15.4187 12.0346C14.9548 12.0346 14.5769 11.5052 14.5769 10.8505C14.5769 10.1957 14.9529 9.66632 15.4187 9.66632C15.8826 9.66632 16.2586 10.1957 16.2586 10.8505C16.2605 11.5033 15.8826 12.0346 15.4187 12.0346ZM19.1301 11.5389C19.1301 10.4782 18.8832 9.47551 18.4455 8.58506C18.4455 8.58506 18.5034 8.35309 18.6587 8.19221C18.8102 8.02946 19.0946 8.04069 19.0946 8.04069C19.6427 9.0864 19.9532 10.2762 19.9532 11.5389C19.9532 15.703 16.5785 19.0778 12.4144 19.0778C8.2502 19.0778 4.87548 15.703 4.87548 11.5389C4.87548 7.37472 8.2502 4 12.4144 4C13.7388 4 14.9828 4.34234 16.0659 4.94096C16.0659 4.94096 16.0641 5.17292 15.9387 5.37309C15.8134 5.57138 15.5983 5.62376 15.5983 5.62376C14.6498 5.11306 13.5667 4.8231 12.4144 4.8231C8.70478 4.8231 5.69859 7.8293 5.69859 11.5389C5.69859 15.2485 8.70478 18.2546 12.4144 18.2546C16.1239 18.2546 19.1301 15.2485 19.1301 11.5389Z"/>
</mask>
<path fill-rule="evenodd" clip-rule="evenodd" d="M14.6461 6.71437C14.6461 6.71437 17.0649 6.9613 17.4596 9.18368C17.4596 9.18368 18.0021 6.86402 20.0281 6.71624C20.0281 6.71624 17.7065 6.17187 17.4596 4C17.4596 4 17.2127 6.4188 14.6461 6.71437ZM4 18.7953C4 18.7953 5.18228 18.915 5.37496 20C5.37496 20 5.64059 18.8664 6.62832 18.7953C6.62832 18.7953 5.49468 18.5296 5.37496 17.469C5.37496 17.469 5.25336 18.6512 4 18.7953ZM14.5787 14.5058C14.5787 14.5058 14.0849 15.4935 12.506 15.4935C12.506 15.4935 11.4697 15.5927 10.4333 14.6049C10.4333 14.6049 9.92634 13.5966 10.9122 13.8922C10.9122 13.8922 11.5258 14.7527 12.463 14.7527C12.463 14.7527 13.4919 14.7527 13.9857 13.9128C13.9857 13.9128 14.923 13.6658 14.5787 14.5058ZM8.6524 10.8523C8.6524 11.5052 9.02841 12.0365 9.49234 12.0365C9.95627 12.0365 10.3323 11.5071 10.3323 10.8523C10.3323 10.1976 9.95627 9.66632 9.49234 9.66632C9.02841 9.66632 8.6524 10.1976 8.6524 10.8523ZM15.4187 12.0346C14.9548 12.0346 14.5769 11.5052 14.5769 10.8505C14.5769 10.1957 14.9529 9.66632 15.4187 9.66632C15.8826 9.66632 16.2586 10.1957 16.2586 10.8505C16.2605 11.5033 15.8826 12.0346 15.4187 12.0346ZM19.1301 11.5389C19.1301 10.4782 18.8832 9.47551 18.4455 8.58506C18.4455 8.58506 18.5034 8.35309 18.6587 8.19221C18.8102 8.02946 19.0946 8.04069 19.0946 8.04069C19.6427 9.0864 19.9532 10.2762 19.9532 11.5389C19.9532 15.703 16.5785 19.0778 12.4144 19.0778C8.2502 19.0778 4.87548 15.703 4.87548 11.5389C4.87548 7.37472 8.2502 4 12.4144 4C13.7388 4 14.9828 4.34234 16.0659 4.94096C16.0659 4.94096 16.0641 5.17292 15.9387 5.37309C15.8134 5.57138 15.5983 5.62376 15.5983 5.62376C14.6498 5.11306 13.5667 4.8231 12.4144 4.8231C8.70478 4.8231 5.69859 7.8293 5.69859 11.5389C5.69859 15.2485 8.70478 18.2546 12.4144 18.2546C16.1239 18.2546 19.1301 15.2485 19.1301 11.5389Z" fill="#616161"/>
<path d="M17.4596 9.18368L17.2627 9.21865L17.6544 9.22922L17.4596 9.18368ZM14.6461 6.71437L14.6232 6.51568L14.6258 6.91334L14.6461 6.71437ZM20.0281 6.71624L20.0426 6.91571L20.0737 6.52152L20.0281 6.71624ZM17.4596 4L17.6583 3.97741L17.2606 3.97969L17.4596 4ZM5.37496 20L5.17804 20.035L5.56968 20.0456L5.37496 20ZM4 18.7953L3.97717 18.5966L3.97985 18.9943L4 18.7953ZM6.62832 18.7953L6.64267 18.9948L6.67395 18.6006L6.62832 18.7953ZM5.37496 17.469L5.57369 17.4465L5.17601 17.4485L5.37496 17.469ZM12.506 15.4935V15.2935H12.4965L12.487 15.2944L12.506 15.4935ZM14.5787 14.5058L14.7576 14.5952L14.761 14.5885L14.7638 14.5816L14.5787 14.5058ZM10.4333 14.6049L10.2546 14.6948L10.2702 14.7258L10.2953 14.7497L10.4333 14.6049ZM10.9122 13.8922L11.075 13.7761L11.0353 13.7203L10.9696 13.7006L10.9122 13.8922ZM13.9857 13.9128L13.9348 13.7194L13.8551 13.7404L13.8133 13.8114L13.9857 13.9128ZM16.2586 10.8505L16.0586 10.8505L16.0586 10.851L16.2586 10.8505ZM18.4455 8.58506L18.2514 8.53655L18.2337 8.60758L18.266 8.67329L18.4455 8.58506ZM18.6587 8.19221L18.8026 8.33112L18.8051 8.3285L18.6587 8.19221ZM19.0946 8.04069L19.2717 7.94784L19.218 7.8454L19.1025 7.84084L19.0946 8.04069ZM16.0659 4.94096L16.2659 4.94257L16.2669 4.82351L16.1627 4.76591L16.0659 4.94096ZM15.9387 5.37309L16.1078 5.47995L16.1082 5.47923L15.9387 5.37309ZM15.5983 5.62376L15.5034 5.79985L15.571 5.83624L15.6456 5.81808L15.5983 5.62376ZM17.4596 9.18368L17.6565 9.1487C17.4451 7.95846 16.6878 7.29677 15.997 6.93813C15.6526 6.75933 15.3223 6.65417 15.0784 6.59358C14.9562 6.56322 14.855 6.54386 14.7835 6.53201C14.7478 6.52609 14.7194 6.52203 14.6995 6.5194C14.6896 6.51809 14.6818 6.51714 14.6762 6.51649C14.6734 6.51617 14.6712 6.51592 14.6696 6.51574C14.6687 6.51565 14.6681 6.51558 14.6675 6.51552C14.6673 6.51549 14.6671 6.51547 14.6669 6.51545C14.6668 6.51544 14.6667 6.51543 14.6666 6.51542C14.6665 6.51541 14.6664 6.5154 14.6461 6.71437C14.6258 6.91334 14.6257 6.91333 14.6256 6.91332C14.6256 6.91332 14.6256 6.91331 14.6255 6.91331C14.6255 6.91331 14.6255 6.91331 14.6255 6.91331C14.6256 6.91331 14.6258 6.91334 14.6261 6.91337C14.6268 6.91345 14.6281 6.91359 14.6299 6.9138C14.6335 6.91422 14.6393 6.91493 14.6472 6.91597C14.6629 6.91804 14.6869 6.92146 14.7181 6.92663C14.7804 6.93696 14.8712 6.95426 14.982 6.98178C15.204 7.03694 15.5031 7.13241 15.8127 7.29314C16.4299 7.61356 17.0794 8.18652 17.2627 9.21865L17.4596 9.18368ZM20.0281 6.71624L20.0135 6.51677C18.9155 6.59687 18.2247 7.26812 17.8164 7.8964C17.612 8.21085 17.4749 8.51927 17.3888 8.74862C17.3456 8.86357 17.315 8.95939 17.295 9.02714C17.285 9.06104 17.2777 9.08797 17.2727 9.10682C17.2703 9.11625 17.2684 9.12367 17.2671 9.12893C17.2664 9.13156 17.2659 9.13366 17.2656 9.1352C17.2654 9.13597 17.2652 9.1366 17.2651 9.13709C17.265 9.13733 17.265 9.13754 17.265 9.13772C17.2649 9.1378 17.2649 9.13791 17.2649 9.13795C17.2649 9.13805 17.2649 9.13813 17.4596 9.18368C17.6544 9.22922 17.6543 9.22929 17.6543 9.22935C17.6543 9.22936 17.6543 9.22941 17.6543 9.22943C17.6543 9.22946 17.6543 9.22946 17.6543 9.22942C17.6543 9.22935 17.6544 9.22914 17.6545 9.2288C17.6546 9.2281 17.6549 9.22687 17.6554 9.22511C17.6562 9.22158 17.6576 9.21595 17.6596 9.20836C17.6636 9.19316 17.6699 9.17011 17.6787 9.14029C17.6963 9.08061 17.7239 8.99405 17.7633 8.88922C17.8422 8.67902 17.9673 8.39829 18.1518 8.11436C18.5212 7.54587 19.1147 6.9834 20.0426 6.91571L20.0281 6.71624ZM17.4596 4L17.2609 4.02259C17.3931 5.18547 18.0831 5.91064 18.7255 6.33897C19.0464 6.55295 19.3583 6.69516 19.5898 6.78398C19.7058 6.82848 19.8023 6.85983 19.8705 6.88022C19.9046 6.89043 19.9317 6.89791 19.9507 6.90294C19.9602 6.90545 19.9677 6.90735 19.973 6.90868C19.9757 6.90934 19.9778 6.90986 19.9794 6.91024C19.9802 6.91043 19.9808 6.91058 19.9813 6.9107C19.9816 6.91076 19.9818 6.91081 19.982 6.91086C19.9821 6.91088 19.9822 6.9109 19.9822 6.91091C19.9823 6.91094 19.9824 6.91096 20.0281 6.71624C20.0737 6.52152 20.0738 6.52154 20.0739 6.52155C20.0739 6.52156 20.0739 6.52157 20.0739 6.52157C20.074 6.52158 20.074 6.52158 20.074 6.52158C20.0739 6.52156 20.0737 6.52152 20.0734 6.52144C20.0727 6.52127 20.0715 6.52098 20.0697 6.52054C20.0663 6.51968 20.0607 6.51826 20.0531 6.51626C20.038 6.51225 20.015 6.50591 19.9851 6.49699C19.9254 6.47913 19.8386 6.45098 19.7331 6.41051C19.5216 6.3294 19.2377 6.19977 18.9474 6.00617C18.3673 5.61935 17.773 4.9864 17.6583 3.97741L17.4596 4ZM14.6461 6.71437L14.669 6.91306C16.0244 6.75696 16.7783 6.03445 17.1871 5.34877C17.3898 5.00874 17.5071 4.67944 17.5738 4.43529C17.6073 4.31297 17.6282 4.21126 17.6409 4.13924C17.6473 4.10321 17.6516 4.07454 17.6544 4.05436C17.6557 4.04427 17.6567 4.03629 17.6574 4.03057C17.6578 4.02771 17.658 4.02542 17.6582 4.0237C17.6583 4.02284 17.6584 4.02213 17.6584 4.02156C17.6585 4.02128 17.6585 4.02104 17.6585 4.02083C17.6585 4.02072 17.6585 4.02059 17.6585 4.02054C17.6586 4.02042 17.6586 4.02031 17.4596 4C17.2606 3.97969 17.2606 3.9796 17.2607 3.97951C17.2607 3.9795 17.2607 3.97942 17.2607 3.97939C17.2607 3.97933 17.2607 3.97931 17.2607 3.97932C17.2607 3.97934 17.2607 3.9795 17.2606 3.97981C17.2606 3.98042 17.2604 3.9816 17.2602 3.98332C17.2598 3.98677 17.2591 3.99241 17.2581 4.00011C17.2559 4.01551 17.2524 4.03909 17.247 4.06978C17.2362 4.13119 17.2178 4.22077 17.188 4.32982C17.1282 4.54843 17.0234 4.84231 16.8435 5.14393C16.4872 5.74154 15.8344 6.37621 14.6232 6.51568L14.6461 6.71437ZM5.37496 20L5.57188 19.965C5.46147 19.3433 5.06368 18.9978 4.7072 18.8132C4.52997 18.7214 4.36056 18.6677 4.23579 18.6368C4.17313 18.6213 4.12097 18.6113 4.08372 18.6052C4.06507 18.6021 4.05009 18.6 4.03933 18.5986C4.03395 18.5979 4.02961 18.5974 4.0264 18.597C4.02479 18.5968 4.02346 18.5966 4.02241 18.5965C4.02189 18.5965 4.02144 18.5964 4.02106 18.5964C4.02087 18.5964 4.0207 18.5964 4.02055 18.5963C4.02048 18.5963 4.02038 18.5963 4.02034 18.5963C4.02024 18.5963 4.02015 18.5963 4 18.7953C3.97985 18.9943 3.97977 18.9943 3.97969 18.9942C3.97967 18.9942 3.9796 18.9942 3.97956 18.9942C3.97948 18.9942 3.97941 18.9942 3.97937 18.9942C3.97928 18.9942 3.97926 18.9942 3.9793 18.9942C3.9794 18.9942 3.97976 18.9943 3.9804 18.9943C3.98167 18.9945 3.98399 18.9948 3.98732 18.9952C3.99397 18.9961 4.00458 18.9976 4.01864 18.9999C4.04679 19.0045 4.0885 19.0124 4.13969 19.0251C4.24262 19.0506 4.38082 19.0946 4.52324 19.1684C4.80607 19.3148 5.09576 19.5717 5.17804 20.035L5.37496 20ZM6.62832 18.7953L6.61396 18.5958C6.0348 18.6375 5.67275 18.9933 5.46352 19.3153C5.35868 19.4767 5.28859 19.6345 5.24467 19.7514C5.2226 19.8102 5.20687 19.8594 5.19648 19.8945C5.19129 19.9121 5.18742 19.9263 5.18475 19.9364C5.18342 19.9415 5.18238 19.9456 5.18163 19.9486C5.18126 19.9501 5.18096 19.9513 5.18072 19.9523C5.18061 19.9528 5.18051 19.9532 5.18043 19.9535C5.18039 19.9537 5.18035 19.9539 5.18032 19.954C5.1803 19.9541 5.18028 19.9542 5.18027 19.9542C5.18025 19.9543 5.18023 19.9544 5.37496 20C5.56968 20.0456 5.56966 20.0457 5.56965 20.0458C5.56964 20.0458 5.56963 20.0459 5.56962 20.0459C5.5696 20.046 5.56959 20.046 5.56958 20.046C5.56957 20.0461 5.56957 20.0461 5.56958 20.0461C5.56961 20.0459 5.5697 20.0456 5.56986 20.0449C5.57018 20.0436 5.57076 20.0413 5.57161 20.0381C5.57332 20.0316 5.57612 20.0213 5.58011 20.0078C5.58812 19.9807 5.60085 19.9407 5.61912 19.8921C5.65587 19.7942 5.71393 19.6641 5.79896 19.5332C5.96948 19.2707 6.23411 19.0242 6.64267 18.9948L6.62832 18.7953ZM5.37496 17.469L5.17622 17.4914C5.24477 18.0987 5.60602 18.4765 5.93556 18.6963C6.10004 18.806 6.2595 18.8786 6.3777 18.9239C6.43703 18.9467 6.48661 18.9628 6.5221 18.9734C6.53986 18.9787 6.55414 18.9827 6.5644 18.9854C6.56954 18.9867 6.57367 18.9878 6.57674 18.9886C6.57827 18.9889 6.57954 18.9892 6.58054 18.9895C6.58103 18.9896 6.58146 18.9897 6.58182 18.9898C6.582 18.9898 6.58216 18.9899 6.58231 18.9899C6.58238 18.9899 6.58248 18.99 6.58251 18.99C6.5826 18.99 6.58269 18.99 6.62832 18.7953C6.67395 18.6006 6.67402 18.6006 6.6741 18.6006C6.67412 18.6006 6.67419 18.6006 6.67422 18.6006C6.6743 18.6006 6.67436 18.6006 6.6744 18.6007C6.67449 18.6007 6.6745 18.6007 6.67445 18.6007C6.67436 18.6006 6.674 18.6006 6.67338 18.6004C6.67216 18.6001 6.66991 18.5995 6.66671 18.5987C6.66031 18.597 6.65012 18.5942 6.63665 18.5902C6.60967 18.5821 6.56975 18.5692 6.52093 18.5505C6.42283 18.5128 6.2914 18.4528 6.1575 18.3635C5.8903 18.1853 5.62486 17.8999 5.57369 17.4465L5.37496 17.469ZM4 18.7953L4.02283 18.994C4.72172 18.9136 5.11595 18.5381 5.32925 18.1806C5.43422 18.0046 5.49479 17.8346 5.52926 17.7088C5.54657 17.6456 5.55751 17.5928 5.56422 17.5549C5.56758 17.5359 5.56989 17.5206 5.57142 17.5095C5.57218 17.504 5.57275 17.4995 5.57315 17.4961C5.57335 17.4944 5.57351 17.493 5.57364 17.4919C5.5737 17.4913 5.57375 17.4909 5.5738 17.4904C5.57382 17.4902 5.57384 17.49 5.57386 17.4899C5.57387 17.4898 5.57388 17.4897 5.57388 17.4896C5.5739 17.4895 5.57391 17.4894 5.37496 17.469C5.17601 17.4485 5.17602 17.4484 5.17603 17.4483C5.17603 17.4483 5.17604 17.4482 5.17604 17.4481C5.17605 17.448 5.17606 17.448 5.17607 17.4479C5.17608 17.4478 5.17609 17.4477 5.17609 17.4477C5.17609 17.4477 5.17605 17.448 5.17599 17.4486C5.17585 17.4497 5.17559 17.4519 5.17515 17.455C5.17428 17.4613 5.17276 17.4715 5.17035 17.4852C5.16551 17.5125 5.15716 17.5532 5.14348 17.6031C5.11599 17.7034 5.06782 17.838 4.98573 17.9756C4.82489 18.2452 4.53164 18.5329 3.97717 18.5966L4 18.7953ZM12.506 15.4935V15.6935C13.3408 15.6935 13.9016 15.4312 14.2564 15.1581C14.4326 15.0226 14.5557 14.8861 14.6356 14.7818C14.6757 14.7296 14.705 14.6853 14.7249 14.6529C14.7348 14.6367 14.7424 14.6235 14.7478 14.6137C14.7505 14.6088 14.7527 14.6048 14.7543 14.6017C14.7551 14.6001 14.7558 14.5988 14.7564 14.5977C14.7566 14.5972 14.7569 14.5967 14.7571 14.5963C14.7572 14.5961 14.7573 14.5959 14.7574 14.5957C14.7574 14.5956 14.7575 14.5955 14.7575 14.5955C14.7576 14.5953 14.7576 14.5952 14.5787 14.5058C14.3999 14.4163 14.3999 14.4162 14.4 14.4161C14.4 14.4161 14.4 14.416 14.4001 14.4159C14.4001 14.4158 14.4002 14.4157 14.4002 14.4156C14.4003 14.4154 14.4004 14.4153 14.4004 14.4153C14.4005 14.4151 14.4004 14.4152 14.4003 14.4155C14.3999 14.4162 14.3991 14.4177 14.3978 14.4201C14.3952 14.4248 14.3907 14.4327 14.384 14.4436C14.3707 14.4652 14.3491 14.4981 14.3182 14.5385C14.2562 14.6193 14.1572 14.7298 14.0125 14.8412C13.7256 15.0619 13.2501 15.2935 12.506 15.2935V15.4935ZM10.4333 14.6049L10.2953 14.7497C10.8413 15.27 11.3912 15.5074 11.8091 15.6135C12.0175 15.6664 12.1924 15.6865 12.3171 15.6933C12.3794 15.6967 12.4293 15.6967 12.4646 15.6958C12.4823 15.6953 12.4963 15.6946 12.5065 15.694C12.5116 15.6937 12.5157 15.6934 12.5188 15.6931C12.5203 15.693 12.5216 15.6929 12.5227 15.6928C12.5232 15.6928 12.5237 15.6927 12.5241 15.6927C12.5243 15.6927 12.5244 15.6927 12.5246 15.6926C12.5247 15.6926 12.5248 15.6926 12.5249 15.6926C12.525 15.6926 12.5251 15.6926 12.506 15.4935C12.487 15.2944 12.4871 15.2944 12.4872 15.2944C12.4872 15.2944 12.4873 15.2944 12.4873 15.2944C12.4874 15.2944 12.4875 15.2944 12.4876 15.2944C12.4877 15.2943 12.4878 15.2943 12.4879 15.2943C12.4879 15.2943 12.4877 15.2944 12.4873 15.2944C12.4864 15.2945 12.4846 15.2946 12.4818 15.2948C12.4763 15.2951 12.467 15.2956 12.4543 15.2959C12.4289 15.2966 12.3897 15.2966 12.3387 15.2939C12.2366 15.2883 12.0877 15.2715 11.9075 15.2258C11.5481 15.1345 11.0617 14.9276 10.5713 14.4602L10.4333 14.6049ZM10.9122 13.8922L10.9696 13.7006C10.7105 13.6229 10.4869 13.6095 10.3209 13.706C10.138 13.8123 10.1008 14.0027 10.1031 14.141C10.1054 14.2811 10.1464 14.4222 10.1812 14.5193C10.1992 14.5698 10.2171 14.6126 10.2305 14.6431C10.2373 14.6584 10.243 14.6707 10.2472 14.6795C10.2493 14.6839 10.251 14.6874 10.2522 14.69C10.2529 14.6912 10.2534 14.6923 10.2538 14.6931C10.254 14.6935 10.2541 14.6938 10.2543 14.6941C10.2544 14.6943 10.2544 14.6944 10.2545 14.6945C10.2545 14.6945 10.2545 14.6946 10.2545 14.6946C10.2546 14.6947 10.2546 14.6948 10.4333 14.6049C10.612 14.5151 10.612 14.5151 10.612 14.5152C10.612 14.5152 10.6121 14.5153 10.6121 14.5153C10.6121 14.5153 10.6121 14.5154 10.6121 14.5154C10.6121 14.5154 10.6121 14.5154 10.6121 14.5153C10.612 14.5151 10.6118 14.5148 10.6115 14.5141C10.6109 14.5129 10.6099 14.5108 10.6085 14.5079C10.6057 14.5021 10.6015 14.493 10.5964 14.4813C10.586 14.4578 10.5719 14.4242 10.5578 14.3847C10.5283 14.302 10.5042 14.2095 10.503 14.1345C10.5024 14.098 10.5075 14.0757 10.5123 14.0641C10.5158 14.0558 10.5182 14.054 10.522 14.0518C10.5382 14.0423 10.621 14.0137 10.8548 14.0838L10.9122 13.8922ZM12.463 14.7527V14.5527C12.0567 14.5527 11.712 14.3658 11.4606 14.1659C11.3361 14.0669 11.2382 13.9676 11.1718 13.8933C11.1387 13.8563 11.1136 13.8258 11.0973 13.8051C11.0891 13.7948 11.0831 13.7869 11.0794 13.7819C11.0775 13.7794 11.0762 13.7777 11.0755 13.7767C11.0751 13.7762 11.0749 13.7759 11.0748 13.7758C11.0748 13.7757 11.0748 13.7757 11.0748 13.7758C11.0748 13.7758 11.0749 13.7758 11.0749 13.7759C11.0749 13.7759 11.075 13.776 11.075 13.776C11.075 13.776 11.075 13.7761 10.9122 13.8922C10.7494 14.0083 10.7494 14.0084 10.7494 14.0084C10.7495 14.0085 10.7495 14.0085 10.7495 14.0086C10.7496 14.0087 10.7497 14.0088 10.7498 14.0089C10.75 14.0092 10.7502 14.0095 10.7505 14.0099C10.751 14.0106 10.7517 14.0115 10.7525 14.0127C10.7541 14.0149 10.7564 14.018 10.7593 14.0218C10.765 14.0294 10.7731 14.04 10.7835 14.0532C10.8044 14.0796 10.8346 14.1163 10.8737 14.16C10.9516 14.2471 11.0657 14.3629 11.2117 14.479C11.5014 14.7094 11.9321 14.9527 12.463 14.9527V14.7527ZM13.9857 13.9128L13.8133 13.8114C13.599 14.1759 13.2669 14.3622 12.9766 14.4578C12.832 14.5054 12.7009 14.5293 12.6065 14.5412C12.5594 14.5471 12.5219 14.55 12.4969 14.5514C12.4844 14.5521 12.4751 14.5524 12.4693 14.5526C12.4664 14.5527 12.4644 14.5527 12.4633 14.5527C12.4628 14.5527 12.4625 14.5527 12.4625 14.5527C12.4624 14.5527 12.4625 14.5527 12.4625 14.5527C12.4626 14.5527 12.4626 14.5527 12.4627 14.5527C12.4628 14.5527 12.4628 14.5527 12.4628 14.5527C12.4629 14.5527 12.463 14.5527 12.463 14.7527C12.463 14.9527 12.4631 14.9527 12.4632 14.9527C12.4632 14.9527 12.4633 14.9527 12.4634 14.9527C12.4635 14.9527 12.4637 14.9527 12.4638 14.9527C12.4642 14.9527 12.4646 14.9527 12.465 14.9527C12.466 14.9527 12.4671 14.9527 12.4686 14.9527C12.4714 14.9526 12.4753 14.9526 12.48 14.9524C12.4896 14.9522 12.5028 14.9517 12.5194 14.9508C12.5526 14.9489 12.5994 14.9452 12.6565 14.938C12.7704 14.9237 12.9274 14.8951 13.1017 14.8377C13.4493 14.7233 13.8786 14.4896 14.1581 14.0142L13.9857 13.9128ZM14.5787 14.5058L14.7638 14.5816C14.8575 14.3531 14.8856 14.1495 14.816 13.982C14.7421 13.8041 14.5853 13.7286 14.4554 13.6992C14.3271 13.6702 14.1944 13.6776 14.1027 13.6888C14.055 13.6946 14.0143 13.7019 13.9852 13.7079C13.9706 13.7109 13.9587 13.7136 13.9501 13.7156C13.9459 13.7166 13.9424 13.7174 13.9398 13.7181C13.9385 13.7184 13.9375 13.7187 13.9366 13.7189C13.9362 13.719 13.9358 13.7191 13.9355 13.7192C13.9354 13.7192 13.9352 13.7193 13.9351 13.7193C13.935 13.7193 13.935 13.7193 13.9349 13.7193C13.9349 13.7194 13.9348 13.7194 13.9857 13.9128C14.0367 14.1062 14.0366 14.1062 14.0366 14.1062C14.0365 14.1062 14.0365 14.1062 14.0365 14.1062C14.0364 14.1063 14.0363 14.1063 14.0363 14.1063C14.0362 14.1063 14.0362 14.1063 14.0362 14.1063C14.0363 14.1063 14.0365 14.1062 14.037 14.1061C14.038 14.1059 14.0397 14.1054 14.0422 14.1048C14.0472 14.1037 14.0551 14.1019 14.0655 14.0997C14.0863 14.0955 14.1161 14.0901 14.1509 14.0859C14.2242 14.077 14.3042 14.0751 14.3672 14.0894C14.4286 14.1033 14.4416 14.1235 14.4466 14.1355C14.456 14.158 14.4721 14.2385 14.3937 14.4299L14.5787 14.5058ZM9.49234 12.0365V11.8365C9.34251 11.8365 9.18731 11.751 9.06156 11.5736C8.93618 11.3967 8.8524 11.1421 8.8524 10.8523H8.6524H8.4524C8.4524 11.2154 8.55663 11.5529 8.73523 11.8049C8.91347 12.0563 9.17825 12.2365 9.49234 12.2365V12.0365ZM10.3323 10.8523H10.1323C10.1323 11.1432 10.0485 11.3976 9.92318 11.5742C9.79759 11.7512 9.64243 11.8365 9.49234 11.8365V12.0365V12.2365C9.80618 12.2365 10.071 12.0571 10.2494 11.8057C10.4281 11.5538 10.5323 11.2162 10.5323 10.8523H10.3323ZM9.49234 9.66632V9.86632C9.64215 9.86632 9.79732 9.95179 9.92306 10.1294C10.0484 10.3065 10.1323 10.5615 10.1323 10.8523H10.3323H10.5323C10.5323 10.4884 10.4281 10.1505 10.2495 9.89822C10.0713 9.64648 9.80646 9.46632 9.49234 9.46632V9.66632ZM8.6524 10.8523H8.8524C8.8524 10.5615 8.93623 10.3065 9.06162 10.1294C9.18736 9.95179 9.34253 9.86632 9.49234 9.86632V9.66632V9.46632C9.17822 9.46632 8.91342 9.64648 8.73517 9.89822C8.55658 10.1505 8.4524 10.4884 8.4524 10.8523H8.6524ZM14.5769 10.8505H14.3769C14.3769 11.2146 14.4816 11.5523 14.6609 11.804C14.8397 12.0553 15.105 12.2346 15.4187 12.2346V12.0346V11.8346C15.2685 11.8346 15.1128 11.7492 14.9867 11.5721C14.861 11.3955 14.7769 11.1411 14.7769 10.8505H14.5769ZM15.4187 9.66632V9.46632C15.1042 9.46632 14.8389 9.64544 14.6601 9.897C14.4811 10.1489 14.3769 10.4866 14.3769 10.8505H14.5769H14.7769C14.7769 10.5596 14.8607 10.3052 14.9861 10.1287C15.1118 9.95189 15.2674 9.86632 15.4187 9.86632V9.66632ZM16.2586 10.8505H16.4586C16.4586 10.4866 16.3544 10.149 16.1757 9.89712C15.9973 9.64572 15.7325 9.46632 15.4187 9.46632V9.66632V9.86632C15.5688 9.86632 15.7239 9.95162 15.8495 10.1286C15.9748 10.3052 16.0586 10.5596 16.0586 10.8505H16.2586ZM15.4187 12.0346V12.2346C15.7326 12.2346 15.9979 12.0546 16.1764 11.8031C16.3553 11.5511 16.4597 11.2133 16.4586 10.8499L16.2586 10.8505L16.0586 10.851C16.0595 11.1405 15.9758 11.3948 15.8502 11.5716C15.7243 11.749 15.5686 11.8346 15.4187 11.8346V12.0346ZM18.4455 8.58506L18.266 8.67329C18.6906 9.53698 18.9301 10.5095 18.9301 11.5389H19.1301H19.3301C19.3301 10.4468 19.0758 9.41404 18.6249 8.49682L18.4455 8.58506ZM18.6587 8.19221L18.5148 8.05332C18.4142 8.15754 18.3494 8.27955 18.3104 8.36932C18.2905 8.41527 18.2762 8.45543 18.2667 8.48464C18.2619 8.4993 18.2584 8.51135 18.2558 8.52018C18.2546 8.5246 18.2536 8.52822 18.2529 8.53097C18.2525 8.53235 18.2522 8.53351 18.252 8.53444C18.2518 8.53491 18.2517 8.53532 18.2517 8.53567C18.2516 8.53585 18.2516 8.53601 18.2515 8.53615C18.2515 8.53623 18.2515 8.5363 18.2515 8.53636C18.2515 8.5364 18.2515 8.53644 18.2515 8.53646C18.2514 8.53651 18.2514 8.53655 18.4455 8.58506C18.6395 8.63356 18.6395 8.63361 18.6395 8.63365C18.6395 8.63366 18.6395 8.6337 18.6394 8.63373C18.6394 8.63378 18.6394 8.63383 18.6394 8.63388C18.6394 8.63397 18.6394 8.63405 18.6393 8.63411C18.6393 8.63424 18.6393 8.63431 18.6393 8.63433C18.6393 8.63438 18.6393 8.63422 18.6394 8.63385C18.6396 8.63313 18.64 8.63161 18.6407 8.62937C18.6419 8.62488 18.6441 8.61756 18.6472 8.60796C18.6535 8.58865 18.6634 8.56076 18.6773 8.52861C18.7062 8.46218 18.7479 8.38776 18.8026 8.3311L18.6587 8.19221ZM19.0946 8.04069C19.1025 7.84084 19.1024 7.84084 19.1024 7.84084C19.1023 7.84084 19.1023 7.84084 19.1022 7.84083C19.1021 7.84083 19.1021 7.84083 19.102 7.84082C19.1018 7.84082 19.1016 7.84081 19.1013 7.8408C19.1009 7.84079 19.1004 7.84077 19.0998 7.84075C19.0986 7.84071 19.0971 7.84068 19.0954 7.84064C19.0919 7.84057 19.0873 7.84052 19.0818 7.84052C19.0708 7.84054 19.0557 7.84081 19.0375 7.84174C19.0015 7.84359 18.9515 7.84814 18.8952 7.85911C18.7883 7.87994 18.6302 7.92931 18.5123 8.05593L18.6587 8.19221L18.8051 8.3285C18.8387 8.29237 18.8986 8.26597 18.9717 8.25173C19.0054 8.24516 19.0361 8.24234 19.058 8.24121C19.0689 8.24066 19.0772 8.24053 19.0823 8.24052C19.0849 8.24052 19.0866 8.24055 19.0873 8.24056C19.0877 8.24057 19.0879 8.24057 19.0878 8.24057C19.0877 8.24057 19.0876 8.24057 19.0874 8.24056C19.0873 8.24056 19.0872 8.24055 19.0871 8.24055C19.0871 8.24055 19.087 8.24054 19.0869 8.24054C19.0869 8.24054 19.0868 8.24054 19.0868 8.24054C19.0868 8.24053 19.0867 8.24053 19.0946 8.04069ZM19.9532 11.5389H20.1532C20.1532 10.243 19.8345 9.02146 19.2717 7.94784L19.0946 8.04069L18.9174 8.13354C19.4509 9.15135 19.7532 10.3093 19.7532 11.5389H19.9532ZM12.4144 19.0778V19.2778C16.689 19.2778 20.1532 15.8135 20.1532 11.5389H19.9532H19.7532C19.7532 15.5926 16.4681 18.8778 12.4144 18.8778V19.0778ZM4.87548 11.5389H4.67548C4.67548 15.8135 8.13975 19.2778 12.4144 19.2778V19.0778V18.8778C8.36066 18.8778 5.07548 15.5926 5.07548 11.5389H4.87548ZM12.4144 4V3.8C8.13975 3.8 4.67548 7.26427 4.67548 11.5389H4.87548H5.07548C5.07548 7.48518 8.36066 4.2 12.4144 4.2V4ZM16.0659 4.94096L16.1627 4.76591C15.0509 4.15145 13.7737 3.8 12.4144 3.8V4V4.2C13.7039 4.2 14.9147 4.53322 15.9692 5.116L16.0659 4.94096ZM15.9387 5.37309L16.1082 5.47923C16.1883 5.35141 16.2267 5.21768 16.2457 5.12012C16.2553 5.07054 16.2603 5.02814 16.263 4.99742C16.2643 4.98201 16.265 4.96939 16.2654 4.9601C16.2656 4.95545 16.2658 4.95162 16.2658 4.94868C16.2659 4.94721 16.2659 4.94596 16.2659 4.94494C16.2659 4.94443 16.2659 4.94397 16.2659 4.94358C16.2659 4.94338 16.2659 4.9432 16.2659 4.94303C16.2659 4.94295 16.2659 4.94287 16.2659 4.94279C16.2659 4.94275 16.2659 4.9427 16.2659 4.94268C16.2659 4.94262 16.2659 4.94257 16.0659 4.94096C15.8659 4.93934 15.8659 4.93929 15.8659 4.93924C15.8659 4.93923 15.8659 4.93918 15.866 4.93915C15.866 4.93908 15.866 4.93902 15.866 4.93897C15.866 4.93886 15.866 4.93876 15.866 4.93867C15.866 4.9385 15.866 4.93838 15.866 4.93832C15.866 4.93819 15.866 4.93827 15.866 4.93854C15.8659 4.9391 15.8659 4.94045 15.8658 4.94253C15.8656 4.94671 15.8652 4.95377 15.8644 4.96323C15.8628 4.98226 15.8595 5.01037 15.853 5.0438C15.8397 5.11227 15.8145 5.1946 15.7692 5.26694L15.9387 5.37309ZM15.5983 5.62376C15.6456 5.81808 15.6457 5.81806 15.6457 5.81805C15.6458 5.81804 15.6458 5.81802 15.6459 5.81801C15.646 5.81799 15.6461 5.81796 15.6462 5.81793C15.6464 5.81788 15.6466 5.81782 15.6469 5.81776C15.6474 5.81764 15.6479 5.81751 15.6485 5.81736C15.6497 5.81705 15.6511 5.81669 15.6527 5.81626C15.6559 5.81539 15.6599 5.81427 15.6647 5.81284C15.6742 5.81001 15.6869 5.80598 15.7019 5.80054C15.7318 5.7897 15.7722 5.77297 15.8173 5.74836C15.9066 5.69964 16.0217 5.61616 16.1078 5.47994L15.9387 5.37309L15.7697 5.26623C15.7304 5.3283 15.6753 5.37016 15.6257 5.3972C15.6014 5.41048 15.5801 5.41923 15.5658 5.42442C15.5587 5.42698 15.5535 5.42859 15.5508 5.42939C15.5495 5.42979 15.5488 5.42998 15.5488 5.42999C15.5488 5.42999 15.5489 5.42994 15.5493 5.42985C15.5495 5.4298 15.5497 5.42974 15.55 5.42967C15.5501 5.42964 15.5503 5.4296 15.5504 5.42956C15.5505 5.42954 15.5506 5.42952 15.5507 5.4295C15.5507 5.42949 15.5508 5.42947 15.5508 5.42947C15.5509 5.42945 15.551 5.42943 15.5983 5.62376ZM12.4144 4.8231V5.0231C13.5327 5.0231 14.5834 5.30442 15.5034 5.79985L15.5983 5.62376L15.6931 5.44766C14.7163 4.9217 13.6007 4.6231 12.4144 4.6231V4.8231ZM5.69859 11.5389H5.89859C5.89859 7.93976 8.81524 5.0231 12.4144 5.0231V4.8231V4.6231C8.59432 4.6231 5.49859 7.71884 5.49859 11.5389H5.69859ZM12.4144 18.2546V18.0546C8.81524 18.0546 5.89859 15.138 5.89859 11.5389H5.69859H5.49859C5.49859 15.3589 8.59432 18.4546 12.4144 18.4546V18.2546ZM19.1301 11.5389H18.9301C18.9301 15.138 16.0135 18.0546 12.4144 18.0546V18.2546V18.4546C16.2344 18.4546 19.3301 15.3589 19.3301 11.5389H19.1301Z" fill="#616161" mask="url(#path-2-outside-1_0_10142)"/>
</g>
</g>
</g>
</g>
</svg>
