<svg width="24" height="24" viewBox="0 0 24 24" fill="none" xmlns="http://www.w3.org/2000/svg">
<mask id="mask0_0_7751" style="mask-type:luminance" maskUnits="userSpaceOnUse" x="0" y="0" width="24" height="24">
<path fill-rule="evenodd" clip-rule="evenodd" d="M0 0H24V24H0V0Z" fill="white"/>
</mask>
<g mask="url(#mask0_0_7751)">
<path d="M23 12C23 5.925 18.075 1 12 1C5.925 1 1 5.925 1 12C1 18.075 5.925 23 12 23C18.075 23 23 18.075 23 12Z" fill="#9E9E9E"/>
<path d="M15.3605 12.4224C15.3548 11.4528 15.7969 10.7221 16.6896 10.1833C16.1903 9.47243 15.4349 9.08147 14.4392 9.00612C13.4964 8.9322 12.4649 9.55204 12.0873 9.55204C11.6881 9.55204 10.7754 9.03171 10.0572 9.03171C8.57511 9.05446 7 10.206 7 12.5489C7 13.2412 7.12732 13.9563 7.38197 14.6928C7.72246 15.6623 8.94993 18.0379 10.2303 17.9995C10.8999 17.9839 11.3734 17.5275 12.2446 17.5275C13.0901 17.5275 13.5279 17.9995 14.2747 17.9995C15.5665 17.9811 16.6767 15.8216 17 14.8491C15.2675 14.0374 15.3605 12.4721 15.3605 12.4224Z" fill="white"/>
<path d="M14.2213 8.03308C15.0906 7.12446 15.0117 6.29734 14.986 6C14.2178 6.03924 13.3297 6.46035 12.8239 6.97805C12.2666 7.53349 11.9391 8.22024 12.0094 8.99454C12.8393 9.05038 13.5971 8.67456 14.2213 8.03308Z" fill="white"/>
</g>
</svg>
