<svg width="36" height="36" viewBox="0 0 36 36" fill="none" xmlns="http://www.w3.org/2000/svg">
<mask id="mask0_0_4060" style="mask-type:luminance" maskUnits="userSpaceOnUse" x="0" y="0" width="36" height="36">
<path fill-rule="evenodd" clip-rule="evenodd" d="M0 0H36V36H0V0Z" fill="white"/>
</mask>
<g mask="url(#mask0_0_4060)">
<path fill-rule="evenodd" clip-rule="evenodd" d="M25.205 10.5647C25.205 6.60552 21.9822 3.36621 18.0033 3.36621C14.0244 3.36621 10.8017 6.60552 10.8017 10.5647C10.8017 14.5418 14.0244 17.7632 18.0033 17.7632C21.9822 17.7632 25.205 14.5418 25.205 10.5647V10.5647ZM5.83253 19.1849C5.01271 19.6558 4.29383 20.2836 3.71701 21.0325C3.14019 21.7814 2.71676 22.6367 2.47095 23.5493C2.22513 24.4619 2.16175 25.414 2.28443 26.3512C2.40712 27.2883 2.71345 28.1921 3.18592 29.0108C4.14122 30.6666 5.71531 31.8755 7.56209 32.3716C9.40887 32.8677 11.3772 32.6104 13.0342 31.6562C13.8535 31.1824 14.5714 30.5519 15.1469 29.8008C15.7224 29.0497 16.1442 28.1926 16.3883 27.2785C16.6324 26.3644 16.694 25.4111 16.5695 24.4732C16.445 23.5354 16.1369 22.6312 15.6628 21.8123C13.6823 18.375 9.27131 17.2053 5.83253 19.1849V19.1849ZM22.9724 31.6562C26.4292 33.6358 30.8222 32.466 32.8207 29.0288C34.8012 25.5735 33.6309 21.1824 30.1741 19.1849C26.7353 17.2053 22.3243 18.375 20.3438 21.8123C19.8697 22.6312 19.5616 23.5354 19.4371 24.4732C19.3127 25.4111 19.3742 26.3644 19.6183 27.2785C19.8624 28.1926 20.2842 29.0497 20.8598 29.8008C21.4353 30.5519 22.1532 31.1824 22.9724 31.6562V31.6562Z" fill="white"/>
</g>
</svg>
