<svg width="18" height="22" viewBox="0 0 18 22" fill="none" xmlns="http://www.w3.org/2000/svg">
<path fill-rule="evenodd" clip-rule="evenodd" d="M15.4509 8.50242H15.6076C16.9273 8.50606 17.9961 9.50318 18 10.7343V19.7681C17.9961 20.9992 16.9273 21.9964 15.6076 22H2.39241C1.07274 21.9964 0.00391015 20.9992 0 19.7681V10.7343C0.00391015 9.50318 1.07274 8.50606 2.39241 8.50242H13.1725V5.18116C13.1703 3.49447 11.7051 2.12765 9.89715 2.1256H8.11709C6.30909 2.12765 4.84397 3.49447 4.84177 5.18116V6.37681C4.84177 6.96378 4.33172 7.43961 3.70253 7.43961C3.07335 7.43961 2.56329 6.96378 2.56329 6.37681V5.18116C2.56329 2.32435 5.05453 0 8.11709 0H9.89715C12.9594 0 15.4509 2.32408 15.4509 5.18116V8.50242ZM10.7089 18.6787L10.3671 16.1222H10.3654C11.2958 15.5578 11.7176 14.4898 11.4021 13.4972C11.0866 12.5046 10.1089 11.8238 8.99915 11.8238C7.88937 11.8238 6.91172 12.5046 6.59623 13.4972C6.28073 14.4898 6.70252 15.5578 7.63291 16.1222L7.29114 18.6787H10.7089Z" fill="#FF4D67"/>
</svg>
