<svg width="22" height="22" viewBox="0 0 22 22" fill="none" xmlns="http://www.w3.org/2000/svg">
<path fill-rule="evenodd" clip-rule="evenodd" d="M1.21742 4.15652L4.19868 5.33177L5.37393 8.31303L6.54919 5.33177L9.53045 4.15652L6.54919 2.98126L5.37393 0L4.19868 2.98126L1.21742 4.15652ZM8.59523 11.8398L2.66596 17.7691L4.23089 19.334L10.1602 13.4048L8.59523 11.8398ZM0.608486 16.2998C-0.202829 17.1113 -0.202829 18.4269 0.608486 19.2384L2.76156 21.3915C3.57312 22.2028 4.88866 22.2028 5.70022 21.3915L15.335 11.7567C16.1463 10.9451 16.1463 9.62961 15.335 8.81805L13.1819 6.66498C12.3704 5.85366 11.0549 5.85366 10.2433 6.66498L0.608486 16.2998ZM16.6693 5.33177L13.687 4.15652L16.6682 2.98126L17.8435 0L19.0187 2.98126L22 4.15652L19.0187 5.33177L17.8435 8.31303L16.6682 5.33177H16.6693ZM16.6682 17.8013L13.687 16.6261L16.6682 15.4508L17.8435 12.4696L19.0187 15.4508L22 16.6261L19.0187 17.8013L17.8435 20.7826L16.6682 17.8013Z" fill="#FF4D67"/>
</svg>
