<svg width="30" height="30" viewBox="0 0 30 30" fill="none" xmlns="http://www.w3.org/2000/svg">
<circle cx="15" cy="15" r="15" fill="#F4F4F4"/>
<mask id="mask0_0_5494" style="mask-type:luminance" maskUnits="userSpaceOnUse" x="7" y="7" width="16" height="16">
<path fill-rule="evenodd" clip-rule="evenodd" d="M7 7H23V23H7V7Z" fill="white"/>
</mask>
<g mask="url(#mask0_0_5494)">
<path fill-rule="evenodd" clip-rule="evenodd" d="M17.6819 7.00801C17.6479 6.97001 16.4229 7.02301 15.3569 8.18C14.2909 9.336 14.4549 10.662 14.4789 10.696C14.5029 10.73 15.9989 10.783 16.9539 9.43799C17.9089 8.093 17.7159 7.04701 17.6819 7.00801V7.00801ZM20.996 18.7409C20.948 18.6449 18.671 17.507 18.883 15.319C19.095 13.13 20.558 12.53 20.581 12.465C20.604 12.4 19.984 11.675 19.327 11.308C18.8446 11.0492 18.3107 10.901 17.7639 10.874C17.6559 10.871 17.2809 10.779 16.5099 10.99C16.0019 11.129 14.8569 11.579 14.5419 11.597C14.2259 11.615 13.2859 11.075 12.2749 10.932C11.6279 10.807 10.9419 11.063 10.4509 11.26C9.96093 11.456 9.02893 12.014 8.37693 13.497C7.72493 14.979 8.06593 17.327 8.30993 18.057C8.55393 18.7859 8.93493 19.9809 9.58293 20.8529C10.1589 21.8369 10.9229 22.5199 11.2419 22.7519C11.5609 22.9839 12.4609 23.1379 13.0849 22.8189C13.5869 22.5109 14.4929 22.3339 14.8509 22.3469C15.2079 22.3599 15.9119 22.5009 16.6329 22.8859C17.2039 23.0829 17.7439 23.0009 18.285 22.7809C18.826 22.5599 19.609 21.7219 20.523 20.0229C20.87 19.2329 21.028 18.8059 20.996 18.7409V18.7409Z" fill="black"/>
<path fill-rule="evenodd" clip-rule="evenodd" d="M17.6819 7.00801C17.6479 6.97001 16.4229 7.02301 15.3569 8.18C14.2909 9.336 14.4549 10.662 14.4789 10.696C14.5029 10.73 15.9989 10.783 16.9539 9.43799C17.9089 8.093 17.7159 7.04701 17.6819 7.00801V7.00801ZM20.996 18.7409C20.948 18.6449 18.671 17.507 18.883 15.319C19.095 13.13 20.558 12.53 20.581 12.465C20.604 12.4 19.984 11.675 19.327 11.308C18.8446 11.0492 18.3107 10.901 17.7639 10.874C17.6559 10.871 17.2809 10.779 16.5099 10.99C16.0019 11.129 14.8569 11.579 14.5419 11.597C14.2259 11.615 13.2859 11.075 12.2749 10.932C11.6279 10.807 10.9419 11.063 10.4509 11.26C9.96093 11.456 9.02893 12.014 8.37693 13.497C7.72493 14.979 8.06593 17.327 8.30993 18.057C8.55393 18.7859 8.93493 19.9809 9.58293 20.8529C10.1589 21.8369 10.9229 22.5199 11.2419 22.7519C11.5609 22.9839 12.4609 23.1379 13.0849 22.8189C13.5869 22.5109 14.4929 22.3339 14.8509 22.3469C15.2079 22.3599 15.9119 22.5009 16.6329 22.8859C17.2039 23.0829 17.7439 23.0009 18.285 22.7809C18.826 22.5599 19.609 21.7219 20.523 20.0229C20.87 19.2329 21.028 18.8059 20.996 18.7409V18.7409Z" fill="black"/>
</g>
</svg>
