<svg width="20" height="20" viewBox="0 0 20 20" fill="none" xmlns="http://www.w3.org/2000/svg">
<path fill-rule="evenodd" clip-rule="evenodd" d="M14.6026 6.16317V7.44095C16.0379 7.88897 17.0837 9.18828 17.0837 10.7402V14.8543C17.0837 16.7755 15.4909 18.3332 13.5272 18.3332H6.47432C4.50979 18.3332 2.91699 16.7755 2.91699 14.8543V10.7402C2.91699 9.18828 3.96361 7.88897 5.39806 7.44095V6.16317C5.40653 3.67882 7.46421 1.6665 9.98762 1.6665C12.5449 1.6665 14.6026 3.67882 14.6026 6.16317ZM10.0041 3.1157C11.7228 3.1157 13.1198 4.48337 13.1198 6.16603V7.26514H6.87989V6.14945C6.88836 4.47508 8.28535 3.1157 10.0041 3.1157ZM10.7402 13.7091C10.7402 14.1144 10.4103 14.437 9.99576 14.437C9.58971 14.437 9.25979 14.1144 9.25979 13.7091V11.873C9.25979 11.476 9.58971 11.1534 9.99576 11.1534C10.4103 11.1534 10.7402 11.476 10.7402 11.873V13.7091Z" fill="#9E9E9E"/>
</svg>
