<svg width="16" height="16" viewBox="0 0 16 16" fill="none" xmlns="http://www.w3.org/2000/svg">
<g id="Iconly/Light-Outline/Download&#229;&#164;&#135;&#228;&#187;&#189; 2">
<mask id="mask0_0_10776" style="mask-type:luminance" maskUnits="userSpaceOnUse" x="0" y="0" width="16" height="16">
<path id="&#232;&#183;&#175;&#229;&#190;&#132;" fill-rule="evenodd" clip-rule="evenodd" d="M0 0H16V16H0V0Z" fill="white"/>
</mask>
<g mask="url(#mask0_0_10776)">
<g id="fenxiang-4">
<path id="&#229;&#189;&#162;&#231;&#138;&#182;" fill-rule="evenodd" clip-rule="evenodd" d="M13.0582 12.2554V9.70313H13.9976V12.2554C13.9976 13.168 13.0874 14 12.087 14H3.71777C2.76861 14 2 13.229 2 12.2822V3.91297C2 3.01017 2.74664 2 3.74461 2H8.46604V2.93941H3.74461C3.30785 2.93941 2.93697 3.31029 2.93697 3.74705L2.92233 12.2822C2.92233 12.7214 3.27857 13.0777 3.71533 13.0777L12.2505 13.063C12.6873 13.063 13.0582 12.6946 13.0582 12.2554ZM14.366 6.02359L10.8451 2.49532V4.51078C5.95283 4.51078 5.3111 10.0545 5.3111 10.0545C7.35096 7.14599 10.8451 7.53396 10.8451 7.53396V9.54941L14.366 6.02359Z" fill="#FB5D5D"/>
</g>
</g>
</g>
</svg>
