<svg width="30" height="30" viewBox="0 0 30 30" fill="none" xmlns="http://www.w3.org/2000/svg">
<circle cx="15" cy="15" r="15" fill="#F4F4F4"/>
<path fill-rule="evenodd" clip-rule="evenodd" d="M18.3476 8.21321C18.1315 7.95982 17.7653 7.93132 17.5165 8.14854L17.4706 8.19217L15.7027 10.0633H13.908L12.1405 8.19217L12.0946 8.14812C11.846 7.92854 11.4778 7.95615 11.2609 8.21064C11.044 8.46513 11.0558 8.85556 11.2877 9.09482L12.2031 10.0633H10.1389C8.95761 10.0633 8 11.0769 8 12.3272V19.7362C8 20.9864 8.95761 22 10.1389 22H19.8611C20.4284 22 20.9724 21.7615 21.3735 21.3369C21.7747 20.9124 22 20.3366 22 19.7362V12.3272L21.9984 12.2362C21.9523 11.0222 21.009 10.0632 19.8611 10.0633H17.4072L18.3234 9.09482C18.553 8.85509 18.5636 8.46659 18.3476 8.21321ZM13.4433 18.0889V13.9744C13.4433 13.4723 13.9796 13.1805 14.3657 13.4723L17.0879 15.5295C17.2412 15.6453 17.3322 15.8324 17.3322 16.0317C17.3322 16.231 17.2412 16.418 17.0879 16.5338L14.3657 18.5911C13.9799 18.8829 13.4433 18.5911 13.4433 18.0889Z" fill="black"/>
</svg>
