<svg width="22" height="20" viewBox="0 0 22 20" fill="none" xmlns="http://www.w3.org/2000/svg">
<path fill-rule="evenodd" clip-rule="evenodd" d="M20.26 3.19978C20.41 3.10472 20.5841 3.05422 20.7619 3.05422C21.4446 3.05422 22 3.59817 22 4.26677C22 4.32004 21.9954 4.37326 21.9863 4.42576L19.4646 18.8955C19.4086 19.5137 18.8769 20 18.2313 20H3.76865C3.12315 20 2.59144 19.5137 2.53545 18.8955L0.0137637 4.42576C0.00459632 4.37326 0 4.32007 0 4.26677C0 3.59817 0.555397 3.05422 1.23808 3.05422C1.41587 3.05423 1.58998 3.10472 1.73996 3.19978L5.92902 5.85511L10.2649 0.355869C10.4421 0.131204 10.7131 0 11 0C11.2869 0 11.5579 0.131204 11.735 0.355869L16.0709 5.85511L20.26 3.19978ZM11.7948 15.4346L14.5185 11.0953C14.792 10.6596 14.6589 10.0858 14.2212 9.81356C13.7836 9.54131 13.2071 9.6738 12.9337 10.1095L11 13.1901L9.06626 10.1095C8.79281 9.67383 8.21632 9.54131 7.77869 9.81356C7.34105 10.0858 7.20794 10.6596 7.48142 11.0953L10.2052 15.4346C10.3825 15.717 10.687 15.872 10.9985 15.872L11 15.8719L11.0014 15.872C11.313 15.872 11.6175 15.717 11.7948 15.4346Z" fill="#FF4D67"/>
</svg>
