<svg width="20" height="20" viewBox="0 0 20 20" fill="none" xmlns="http://www.w3.org/2000/svg">
<path fill-rule="evenodd" clip-rule="evenodd" d="M14.1162 2.5C15.2337 2.5 16.3087 2.94167 17.0995 3.73417C17.8912 4.525 18.3337 5.59167 18.3337 6.70833V13.2917C18.3337 15.6167 16.442 17.5 14.1162 17.5H5.88366C3.55782 17.5 1.66699 15.6167 1.66699 13.2917V6.70833C1.66699 4.38333 3.54949 2.5 5.88366 2.5H14.1162ZM15.4439 7.95021L15.5106 7.88353C15.7098 7.64182 15.7098 7.29175 15.5015 7.05003C15.3856 6.92584 15.2264 6.85 15.0605 6.83333C14.8855 6.82416 14.7188 6.88334 14.593 7.00003L10.8348 10.0006C10.3514 10.4015 9.65872 10.4015 9.1678 10.0006L5.41712 7.00003C5.15791 6.80832 4.79951 6.83333 4.58364 7.05837C4.3586 7.28341 4.33359 7.64182 4.52446 7.89187L4.63365 8.00022L8.426 10.9591C8.89275 11.3259 9.45869 11.5259 10.0513 11.5259C10.6422 11.5259 11.2182 11.3259 11.6841 10.9591L15.4439 7.95021Z" fill="#9E9E9E"/>
</svg>
