<svg width="28" height="28" viewBox="0 0 28 28" fill="none" xmlns="http://www.w3.org/2000/svg">
<mask id="mask0_0_7312" style="mask-type:luminance" maskUnits="userSpaceOnUse" x="0" y="0" width="28" height="28">
<path fill-rule="evenodd" clip-rule="evenodd" d="M0 0H28V28H0V0Z" fill="white"/>
</mask>
<g mask="url(#mask0_0_7312)">
<path fill-rule="evenodd" clip-rule="evenodd" d="M8.11765 8.49725C8.11765 5.46125 10.7509 3 14 3C17.2476 3 19.8824 5.46318 19.8824 8.49725V13.4528C19.8824 16.4888 17.2491 18.95 14 18.95C10.7524 18.95 8.11765 16.4868 8.11765 13.4528V8.49725ZM14.8824 22.7642V24.175C14.8824 24.6306 14.4873 25 14 25C13.5127 25 13.1176 24.6306 13.1176 24.175V22.7642C8.00794 22.3463 4 18.3356 4 13.45V12.9C4 12.4444 4.39504 12.075 4.88235 12.075C5.36966 12.075 5.76471 12.4444 5.76471 12.9V13.45C5.76471 17.7026 9.45176 21.15 14 21.15C18.5482 21.15 22.2353 17.7026 22.2353 13.45V12.9C22.2353 12.4444 22.6303 12.075 23.1176 12.075C23.605 12.075 24 12.4444 24 12.9V13.45C24 18.3359 19.9921 22.3463 14.8824 22.7642ZM9.88235 13.4527V8.49725C9.88235 6.37232 11.7253 4.65 14 4.65C16.2732 4.65 18.1176 6.37425 18.1176 8.49725V13.4527C18.1176 15.5777 16.2747 17.3 14 17.3C11.7268 17.3 9.88235 15.5757 9.88235 13.4527Z" fill="#212121"/>
</g>
</svg>
