<svg width="24" height="24" viewBox="0 0 24 24" fill="none" xmlns="http://www.w3.org/2000/svg">
<mask id="mask0_1_475" style="mask-type:luminance" maskUnits="userSpaceOnUse" x="0" y="0" width="24" height="24">
<path fill-rule="evenodd" clip-rule="evenodd" d="M0.480469 0H23.5205V24H0.480469V0Z" fill="white"/>
</mask>
<g mask="url(#mask0_1_475)">
<path fill-rule="evenodd" clip-rule="evenodd" d="M23.5062 12.2247C23.5062 11.2413 23.4278 10.5237 23.2582 9.77954H12.2295V14.218H18.7031C18.5726 15.321 17.8678 16.9822 16.3016 18.0984L16.2797 18.247L19.7667 20.9975L20.0083 21.022C22.2271 18.9356 23.5062 15.8659 23.5062 12.2247Z" fill="#4285F4"/>
<path fill-rule="evenodd" clip-rule="evenodd" d="M12.2268 23.9212C15.3979 23.9212 18.0601 22.8577 20.0047 21.0234L16.2984 18.099C15.3066 18.8035 13.9755 19.2953 12.2268 19.2953C9.12084 19.2953 6.48472 17.2085 5.54502 14.324L5.40728 14.3359L1.78179 17.1938L1.73438 17.328C3.66579 21.236 7.63306 23.9212 12.2268 23.9212Z" fill="#34A853"/>
<path fill-rule="evenodd" clip-rule="evenodd" d="M5.55098 14.3273C5.30273 13.5829 5.15906 12.7852 5.15906 11.9611C5.15906 11.1369 5.30273 10.3393 5.53792 9.59494L5.53135 9.4364L1.856 6.53247L1.73575 6.59066C0.938759 8.21244 0.481445 10.0336 0.481445 11.9611C0.481445 13.8886 0.938759 15.7097 1.73575 17.3315L5.55098 14.3273Z" fill="#FBBC05"/>
<path fill-rule="evenodd" clip-rule="evenodd" d="M12.2315 4.62576C14.4379 4.62576 15.9263 5.59611 16.775 6.40701L20.0912 3.11045C18.0545 1.18304 15.4041 0 12.2315 0C7.63572 0 3.66666 2.68506 1.73438 6.59303L5.53368 9.59718C6.48686 6.71271 9.12417 4.62576 12.2315 4.62576Z" fill="#EB4335"/>
</g>
</svg>
