<svg width="24" height="24" viewBox="0 0 24 24" fill="none" xmlns="http://www.w3.org/2000/svg">
<mask id="mask0_0_7733" style="mask-type:luminance" maskUnits="userSpaceOnUse" x="0" y="0" width="24" height="24">
<path fill-rule="evenodd" clip-rule="evenodd" d="M0 0H24V24H0V0Z" fill="white"/>
</mask>
<g mask="url(#mask0_0_7733)">
<path d="M23 12C23 5.925 18.075 1 12 1C5.925 1 1 5.925 1 12C1 18.075 5.925 23 12 23C18.075 23 23 18.075 23 12Z" fill="#FF4D67"/>
<path fill-rule="evenodd" clip-rule="evenodd" d="M12.7525 17.25V18H11.1683V17.25C9.42574 17.25 8 15.9 8 14.25H9.58416C9.58416 15.075 10.297 15.75 11.1683 15.75V12.75C9.42574 12.75 8 11.4 8 9.75C8 8.1 9.42574 6.75 11.1683 6.75V6H12.7525V6.75C14.495 6.75 15.9208 8.1 15.9208 9.75H14.3366C14.3366 8.925 13.6238 8.25 12.7525 8.25V11.25H13.0693C13.6238 11.25 14.3366 11.55 14.8911 12C15.5248 12.525 16 13.35 16 14.25C15.9208 15.9 14.495 17.25 12.7525 17.25ZM12.7525 15.75C13.6238 15.75 14.3366 15.075 14.3366 14.25C14.3366 13.425 13.6238 12.75 12.7525 12.75V15.75ZM9.58416 9.75C9.58416 8.925 10.297 8.25 11.1683 8.25V11.25C10.297 11.25 9.58416 10.575 9.58416 9.75Z" fill="white"/>
</g>
</svg>
