<svg width="43" height="17" viewBox="0 0 43 17" fill="none" xmlns="http://www.w3.org/2000/svg">
<rect width="43" height="16" rx="4" fill="url(#paint0_linear_0_4652)"/>
<g clip-path="url(#clip0_0_4652)">
<path d="M17.2084 4.432H18.6244L21.0604 11.536H21.0964L23.5204 4.432H24.9364L21.8644 13H20.2804L17.2084 4.432ZM27.864 4.432H29.16V13H27.864V4.432ZM32.8634 4.432H36.4154C38.4554 4.432 39.4754 5.296 39.4754 7.036C39.4754 8.788 38.4434 9.664 36.3914 9.664H34.1714V13H32.8634V4.432ZM34.1714 5.548V8.548H36.3074C36.9554 8.548 37.4234 8.428 37.7234 8.188C38.0114 7.948 38.1674 7.564 38.1674 7.036C38.1674 6.508 38.0114 6.124 37.7114 5.908C37.4114 5.668 36.9434 5.548 36.3074 5.548H34.1714Z" fill="white"/>
<mask id="path-3-outside-1_0_4652" maskUnits="userSpaceOnUse" x="2" y="3" width="12" height="10" fill="black">
<rect fill="white" x="2" y="3" width="12" height="10"/>
<path fill-rule="evenodd" clip-rule="evenodd" d="M3 7.12169L8.02645 12.4656L13 7.12169L10.7778 4H5.22222L3 7.12169ZM5.75132 6.6455H4.00529L5.53968 4.5291H6.96825L5.75132 6.6455ZM6.38624 6.6455H9.66667L8.44974 4.5291H7.60317L6.38624 6.6455ZM6.43915 7.1746L8.02645 11.1958L9.61376 7.1746H6.43915ZM10.5132 4.5291L12.0476 6.6455H10.2487L9.03175 4.5291H10.5132ZM12.3122 7.1746H10.1958L8.66138 11.037L12.3122 7.1746ZM3.74074 7.1746L7.39153 11.037L5.91005 7.1746H3.74074Z"/>
</mask>
<path fill-rule="evenodd" clip-rule="evenodd" d="M3 7.12169L8.02645 12.4656L13 7.12169L10.7778 4H5.22222L3 7.12169ZM5.75132 6.6455H4.00529L5.53968 4.5291H6.96825L5.75132 6.6455ZM6.38624 6.6455H9.66667L8.44974 4.5291H7.60317L6.38624 6.6455ZM6.43915 7.1746L8.02645 11.1958L9.61376 7.1746H6.43915ZM10.5132 4.5291L12.0476 6.6455H10.2487L9.03175 4.5291H10.5132ZM12.3122 7.1746H10.1958L8.66138 11.037L12.3122 7.1746ZM3.74074 7.1746L7.39153 11.037L5.91005 7.1746H3.74074Z" fill="white"/>
<path d="M8.02645 12.4656L7.95361 12.5341L8.02684 12.612L8.09966 12.5337L8.02645 12.4656ZM3 7.12169L2.91853 7.0637L2.87099 7.13049L2.92716 7.19021L3 7.12169ZM13 7.12169L13.0732 7.18982L13.1288 7.13013L13.0815 7.0637L13 7.12169ZM10.7778 4L10.8592 3.94201L10.8293 3.9H10.7778V4ZM5.22222 4V3.9H5.17066L5.14076 3.94201L5.22222 4ZM4.00529 6.6455L3.92433 6.58681L3.80927 6.7455H4.00529V6.6455ZM5.75132 6.6455V6.7455H5.80918L5.83801 6.69535L5.75132 6.6455ZM5.53968 4.5291V4.4291H5.48867L5.45872 4.4704L5.53968 4.5291ZM6.96825 4.5291L7.05494 4.57895L7.14111 4.4291H6.96825V4.5291ZM9.66667 6.6455V6.7455H9.83952L9.75336 6.59566L9.66667 6.6455ZM6.38624 6.6455L6.29955 6.59566L6.21339 6.7455H6.38624V6.6455ZM8.44974 4.5291L8.53643 4.47925L8.50759 4.4291H8.44974V4.5291ZM7.60317 4.5291V4.4291H7.54532L7.51648 4.47925L7.60317 4.5291ZM8.02645 11.1958L7.93344 11.2325L8.02645 11.4681L8.11947 11.2325L8.02645 11.1958ZM6.43915 7.1746V7.0746H6.29217L6.34614 7.21132L6.43915 7.1746ZM9.61376 7.1746L9.70677 7.21132L9.76074 7.0746H9.61376V7.1746ZM12.0476 6.6455V6.7455H12.2436L12.1286 6.58681L12.0476 6.6455ZM10.5132 4.5291L10.5942 4.4704L10.5642 4.4291H10.5132V4.5291ZM10.2487 6.6455L10.162 6.69535L10.1908 6.7455H10.2487V6.6455ZM9.03175 4.5291V4.4291H8.85889L8.94506 4.57895L9.03175 4.5291ZM10.1958 7.1746V7.0746H10.1279L10.1028 7.13768L10.1958 7.1746ZM12.3122 7.1746L12.3848 7.24329L12.5443 7.0746H12.3122V7.1746ZM8.66138 11.037L8.56844 11.0001L8.73405 11.1057L8.66138 11.037ZM7.39153 11.037L7.31886 11.1057L7.4849 11.0012L7.39153 11.037ZM3.74074 7.1746V7.0746H3.50862L3.66807 7.24329L3.74074 7.1746ZM5.91005 7.1746L6.00342 7.13879L5.9788 7.0746H5.91005V7.1746ZM8.02645 12.4656L8.0993 12.3971L3.07284 7.05318L3 7.12169L2.92716 7.19021L7.95361 12.5341L8.02645 12.4656ZM13 7.12169L12.9268 7.05356L7.95325 12.3975L8.02645 12.4656L8.09966 12.5337L13.0732 7.18982L13 7.12169ZM10.7778 4L10.6963 4.05799L12.9185 7.17969L13 7.12169L13.0815 7.0637L10.8592 3.94201L10.7778 4ZM5.22222 4V4.1H10.7778V4V3.9H5.22222V4ZM3 7.12169L3.08147 7.17969L5.30369 4.05799L5.22222 4L5.14076 3.94201L2.91853 7.0637L3 7.12169ZM4.00529 6.6455V6.7455H5.75132V6.6455V6.5455H4.00529V6.6455ZM5.53968 4.5291L5.45872 4.4704L3.92433 6.58681L4.00529 6.6455L4.08625 6.7042L5.62064 4.5878L5.53968 4.5291ZM6.96825 4.5291V4.4291H5.53968V4.5291V4.6291H6.96825V4.5291ZM5.75132 6.6455L5.83801 6.69535L7.05494 4.57895L6.96825 4.5291L6.88156 4.47925L5.66463 6.59566L5.75132 6.6455ZM9.66667 6.6455V6.5455H6.38624V6.6455V6.7455H9.66667V6.6455ZM8.44974 4.5291L8.36305 4.57895L9.57998 6.69535L9.66667 6.6455L9.75336 6.59566L8.53643 4.47925L8.44974 4.5291ZM7.60317 4.5291V4.6291H8.44974V4.5291V4.4291H7.60317V4.5291ZM6.38624 6.6455L6.47293 6.69535L7.68987 4.57895L7.60317 4.5291L7.51648 4.47925L6.29955 6.59566L6.38624 6.6455ZM8.02645 11.1958L8.11947 11.1591L6.53217 7.13789L6.43915 7.1746L6.34614 7.21132L7.93344 11.2325L8.02645 11.1958ZM9.61376 7.1746L9.52074 7.13789L7.93344 11.1591L8.02645 11.1958L8.11947 11.2325L9.70677 7.21132L9.61376 7.1746ZM6.43915 7.1746V7.2746H9.61376V7.1746V7.0746H6.43915V7.1746ZM12.0476 6.6455L12.1286 6.58681L10.5942 4.4704L10.5132 4.5291L10.4323 4.5878L11.9667 6.7042L12.0476 6.6455ZM10.2487 6.6455V6.7455H12.0476V6.6455V6.5455H10.2487V6.6455ZM9.03175 4.5291L8.94506 4.57895L10.162 6.69535L10.2487 6.6455L10.3354 6.59566L9.11844 4.47925L9.03175 4.5291ZM10.5132 4.5291V4.4291H9.03175V4.5291V4.6291H10.5132V4.5291ZM10.1958 7.1746V7.2746H12.3122V7.1746V7.0746H10.1958V7.1746ZM8.66138 11.037L8.75431 11.074L10.2887 7.21152L10.1958 7.1746L10.1028 7.13768L8.56844 11.0001L8.66138 11.037ZM12.3122 7.1746L12.2395 7.10591L8.5887 10.9683L8.66138 11.037L8.73405 11.1057L12.3848 7.24329L12.3122 7.1746ZM7.39153 11.037L7.46421 10.9683L3.81341 7.10591L3.74074 7.1746L3.66807 7.24329L7.31886 11.1057L7.39153 11.037ZM5.91005 7.1746L5.81669 7.21042L7.29817 11.0728L7.39153 11.037L7.4849 11.0012L6.00342 7.13879L5.91005 7.1746ZM3.74074 7.1746V7.2746H5.91005V7.1746V7.0746H3.74074V7.1746Z" fill="white" mask="url(#path-3-outside-1_0_4652)"/>
</g>
<defs>
<linearGradient id="paint0_linear_0_4652" x1="4.65143" y1="7.95559" x2="7.51915" y2="20.3669" gradientUnits="userSpaceOnUse">
<stop stop-color="#FFA770"/>
<stop offset="1" stop-color="#D247FE"/>
</linearGradient>
<clipPath id="clip0_0_4652">
<rect width="38" height="17" fill="white" transform="translate(3)"/>
</clipPath>
</defs>
</svg>
