<svg width="36" height="36" viewBox="0 0 36 36" fill="none" xmlns="http://www.w3.org/2000/svg">
<path fill-rule="evenodd" clip-rule="evenodd" d="M23.7746 3.75096C24.7211 3.75096 25.6661 3.88446 26.5646 4.18596C32.1011 5.98596 34.0961 12.061 32.4296 17.371C31.4846 20.0845 29.9396 22.561 27.9161 24.5845C25.0196 27.3895 21.8411 29.8795 18.4196 32.0245L18.0446 32.251L17.6547 32.0095C14.2212 29.8795 11.0247 27.3895 8.10116 24.5695C6.09116 22.546 4.54466 20.0845 3.58466 17.371C1.88966 12.061 3.88466 5.98596 9.48116 4.15446C9.91616 4.00446 10.3647 3.89946 10.8147 3.84096H10.9947C11.4162 3.77946 11.8347 3.75096 12.2547 3.75096H12.4197C13.3647 3.77946 14.2797 3.94446 15.1662 4.24596H15.2547C15.3147 4.27446 15.3597 4.30596 15.3897 4.33446C15.7212 4.44096 16.0347 4.56096 16.3347 4.72596L16.9047 4.98096C17.1297 5.10096 17.3997 5.32446 17.5497 5.41596C17.6997 5.50446 17.8647 5.59596 17.9996 5.69946C19.6661 4.42596 21.6896 3.73596 23.7746 3.75096ZM27.7646 14.551C28.3796 14.5345 28.9046 14.041 28.9496 13.4095V13.231C28.9946 11.1295 27.7211 9.22599 25.7846 8.49099C25.1696 8.27949 24.4946 8.61099 24.2696 9.24099C24.0596 9.87099 24.3896 10.561 25.0196 10.7845C25.9811 11.1445 26.6246 12.091 26.6246 13.1395V13.186C26.5961 13.5295 26.6996 13.861 26.9096 14.116C27.1196 14.371 27.4346 14.5195 27.7646 14.551Z" fill="url(#paint0_linear_0_2502)"/>
<defs>
<linearGradient id="paint0_linear_0_2502" x1="2.99963" y1="3.75049" x2="2.99963" y2="32.251" gradientUnits="userSpaceOnUse">
<stop stop-color="#FF7878"/>
<stop offset="1" stop-color="#FF4343"/>
</linearGradient>
</defs>
</svg>
