<svg width="40" height="40" viewBox="0 0 40 40" fill="none" xmlns="http://www.w3.org/2000/svg">
<path fill-rule="evenodd" clip-rule="evenodd" d="M26.4163 4.1675C27.4679 4.1675 28.5179 4.31584 29.5163 4.65084C35.6679 6.65084 37.8846 13.4008 36.0329 19.3008C34.9829 22.3159 33.2663 25.0676 31.0179 27.3159C27.7996 30.4326 24.2679 33.1992 20.4663 35.5826L20.0496 35.8342L19.6163 35.5659C15.8013 33.1992 12.2496 30.4326 9.00131 27.2992C6.76798 25.0509 5.04965 22.3159 3.98297 19.3008C2.09964 13.4008 4.31631 6.65084 10.5346 4.61584C11.018 4.44917 11.5163 4.3325 12.0163 4.2675H12.2163C12.6846 4.19917 13.1496 4.1675 13.6163 4.1675H13.7996C14.8496 4.19917 15.8663 4.3825 16.8513 4.7175H16.9496C17.0163 4.74917 17.0663 4.78417 17.0996 4.81584C17.468 4.93417 17.8163 5.0675 18.1496 5.25084L18.783 5.53417C19.033 5.6675 19.333 5.91584 19.4996 6.0175C19.6663 6.11584 19.8496 6.2175 19.9996 6.3325C21.8513 4.9175 24.0996 4.15084 26.4163 4.1675Z" fill="#FF2D4C"/>
</svg>
