<svg width="36" height="36" viewBox="0 0 36 36" fill="none" xmlns="http://www.w3.org/2000/svg">
<g id="Iconly/Broken/Heart">
<mask id="mask0_0_3172" style="mask-type:luminance" maskUnits="userSpaceOnUse" x="0" y="0" width="36" height="36">
<path id="&#232;&#183;&#175;&#229;&#190;&#132;" fill-rule="evenodd" clip-rule="evenodd" d="M0 0H36V36H0V0Z" fill="white"/>
</mask>
<g mask="url(#mask0_0_3172)">
<g id="Heart">
<path id="Heart_2" fill-rule="evenodd" clip-rule="evenodd" d="M26.2809 4.20406C28.7022 4.95704 30.7156 6.68662 31.8531 8.99073C33.183 11.7834 33.3641 15.0012 32.3561 17.9304C31.4282 20.6269 29.907 23.0714 27.9088 25.0767C26.5987 26.4233 25.1871 27.663 23.6868 28.7847L23.6075 28.852C23.109 29.1876 22.4387 29.0559 22.0986 28.5555C21.9257 28.3139 21.8562 28.011 21.9062 27.7164C21.956 27.4217 22.1209 27.16 22.3632 26.9913C23.7711 25.9306 25.0985 24.7632 26.3339 23.4991C28.1132 21.748 29.472 19.6024 30.3045 17.2292C31.1052 14.8643 30.9432 12.2713 29.8545 10.029C28.9783 8.265 27.4349 6.94072 25.5795 6.36144C23.213 5.60757 20.6348 6.06457 18.6573 7.58844C18.2643 7.88511 17.727 7.88511 17.3338 7.58844C15.3573 6.06246 12.778 5.60526 10.4117 6.36144C8.54394 6.92793 6.98495 8.2482 6.09699 10.0155C5.03289 12.2562 4.88065 14.8343 5.67347 17.1888C6.50951 19.5564 7.86794 21.6968 9.64407 23.4452C12.2685 26.0088 15.1625 28.2697 18.2736 30.1869C18.6691 30.4666 18.8431 30.974 18.7045 31.4438C18.5659 31.9136 18.1461 32.239 17.6647 32.25C17.4477 32.2512 17.2354 32.1855 17.0559 32.0611C13.8151 30.0643 10.8012 27.7084 8.06907 25.0362C6.05989 23.0374 4.53312 20.5914 3.60874 17.8899C2.63552 14.9648 2.8353 11.7666 4.16463 8.99073C5.30205 6.68662 7.31542 4.95704 9.73672 4.20406C12.5206 3.32806 15.541 3.73177 18.0089 5.30971C20.4766 3.73177 23.4971 3.32806 26.2809 4.20406ZM25.1958 14.5325C25.1405 13.2864 24.3258 12.2087 23.1575 11.8357C22.7231 11.5594 22.5302 11.0166 22.6902 10.521C22.8503 10.0254 23.3219 9.70533 23.8325 9.74578C25.806 10.3805 27.2108 12.1626 27.3929 14.2628C27.4302 14.5564 27.3503 14.8531 27.1712 15.0862C26.9921 15.3194 26.7287 15.4696 26.4399 15.5033C25.8338 15.5831 25.278 15.1494 25.1958 14.5325Z" fill="#9E9E9E"/>
</g>
</g>
</g>
</svg>
