<svg width="40" height="40" viewBox="0 0 40 40" fill="none" xmlns="http://www.w3.org/2000/svg">
<path fill-rule="evenodd" clip-rule="evenodd" d="M26.4163 4.16764C27.4679 4.16764 28.5179 4.31597 29.5163 4.65097C35.6679 6.65097 37.8846 13.401 36.0329 19.301C34.9829 22.316 33.2663 25.0677 31.0179 27.316C27.7996 30.4327 24.2679 33.1994 20.4663 35.5827L20.0496 35.8344L19.6163 35.566C15.8013 33.1994 12.2496 30.4327 9.00131 27.2994C6.76798 25.051 5.04965 22.316 3.98297 19.301C2.09964 13.401 4.31631 6.65097 10.5346 4.61597C11.018 4.44931 11.5163 4.33264 12.0163 4.26764H12.2163C12.6846 4.1993 13.1496 4.16764 13.6163 4.16764H13.7996C14.8496 4.1993 15.8663 4.38264 16.8513 4.71764H16.9496C17.0163 4.74931 17.0663 4.78431 17.0996 4.81597C17.468 4.93431 17.8163 5.06764 18.1496 5.25097L18.783 5.53431C19.033 5.66764 19.333 5.91597 19.4996 6.01764C19.6663 6.11597 19.8496 6.21764 19.9996 6.33264C21.8513 4.91764 24.0996 4.15097 26.4163 4.16764ZM30.8496 16.1677C31.5329 16.1493 32.1163 15.601 32.1663 14.8993V14.701C32.2163 12.366 30.8013 10.251 28.6496 9.43434C27.9663 9.19934 27.2163 9.56767 26.9663 10.2677C26.7329 10.9677 27.0996 11.7343 27.7996 11.9827C28.8679 12.3827 29.5829 13.4343 29.5829 14.5993V14.651C29.5513 15.0327 29.6663 15.401 29.8996 15.6843C30.1329 15.9677 30.4829 16.1327 30.8496 16.1677Z" fill="white"/>
</svg>
