<svg width="28" height="28" viewBox="0 0 28 28" fill="none" xmlns="http://www.w3.org/2000/svg">
<path d="M28 14C28 21.732 21.732 28 14 28C6.26801 28 0 21.732 0 14C0 6.26801 6.26801 0 14 0C21.732 0 28 6.26801 28 14Z" fill="url(#paint0_linear_0_10901)"/>
<path d="M17.4053 8C18.0237 8 18.5537 8.44343 18.5537 9.01758V10.9727L21.2051 9.87695C21.2793 9.84412 21.3593 9.82588 21.4404 9.82422L21.4395 9.8252C21.7637 9.8252 21.9998 10.0594 22 10.3467V17.96C22 18.1427 21.9113 18.2993 21.7354 18.4033C21.5582 18.482 21.3523 18.5077 21.1758 18.4297L18.5244 17.335V19.29C18.5244 19.8377 18.024 20.3076 17.376 20.3076H7.14844C6.53123 20.3076 6 19.8642 6 19.29V9.01758C6 8.46989 6.50142 8 7.14941 8H17.4053ZM13.9385 11.2695C13.2267 11.2695 12.6086 11.6334 12.3066 12.1621C12.0047 11.6334 11.3864 11.2695 10.6748 11.2695C9.59411 11.2696 8.94824 12.1999 8.94824 13.0986C8.94859 15.2269 12.0749 17.0662 12.208 17.1436C12.2385 17.1613 12.2725 17.1699 12.3066 17.1699C12.3408 17.1699 12.3748 17.1613 12.4053 17.1436C12.5389 17.0659 15.6647 15.2267 15.665 13.0986C15.6651 12.1999 15.019 11.2696 13.9385 11.2695Z" fill="white"/>
<defs>
<linearGradient id="paint0_linear_0_10901" x1="3.02884" y1="13.9223" x2="13.2824" y2="30.4345" gradientUnits="userSpaceOnUse">
<stop stop-color="#FFA770"/>
<stop offset="1" stop-color="#D247FE"/>
</linearGradient>
</defs>
</svg>
