<svg width="48" height="48" viewBox="0 0 48 48" fill="none" xmlns="http://www.w3.org/2000/svg">
<rect width="48" height="48" rx="8" fill="#F5F5F5"/>
<path fill-rule="evenodd" clip-rule="evenodd" d="M31.0716 16.9284C31.9911 17.8479 32.7114 18.9172 33.2148 20.1074C33.736 21.34 34 22.6488 34 24C34 25.349 33.736 26.66 33.2148 27.8926C32.7114 29.085 31.9888 30.1544 31.0716 31.0716C30.1521 31.9911 29.0828 32.7114 27.8926 33.2148C26.66 33.736 25.349 34 24 34C22.651 34 21.34 33.736 20.1074 33.2148C18.915 32.7114 17.8456 31.9888 16.9284 31.0716C16.0089 30.1521 15.2886 29.0828 14.7852 27.8926C14.264 26.66 14 25.349 14 24C14 22.651 14.264 21.34 14.7852 20.1074C15.2886 18.915 16.0112 17.8456 16.9284 16.9284C17.8479 16.0089 18.9172 15.2886 20.1074 14.7852C21.34 14.264 22.651 14 24 14C25.349 14 26.66 14.264 27.8926 14.7852C29.085 15.2886 30.1544 16.0112 31.0716 16.9284ZM28.3714 22.0157C28.3714 21.34 27.8233 20.7919 27.1477 20.7919C26.472 20.7919 25.9239 21.34 25.9239 22.0157C25.9239 22.6913 26.472 23.2394 27.1477 23.2394C27.8233 23.2394 28.3714 22.6913 28.3714 22.0157ZM20.8456 20.7919C21.5213 20.7919 22.0694 21.34 22.0694 22.0157C22.0694 22.6913 21.5213 23.2394 20.8456 23.2394C20.17 23.2394 19.6219 22.6913 19.6219 22.0157C19.6219 21.34 20.1678 20.7919 20.8456 20.7919ZM26.7405 29.2304C27.3445 28.915 27.8926 28.4922 28.3535 27.9888C28.6063 27.7114 28.566 27.2752 28.264 27.0537C28.0067 26.8702 27.651 26.9038 27.4385 27.1365C27.0738 27.5347 26.6398 27.8702 26.1611 28.1208C25.4922 28.4698 24.7651 28.6488 24.0045 28.6488C23.2438 28.6488 22.5168 28.472 21.8479 28.1208C21.3691 27.8702 20.9351 27.5347 20.5705 27.1365C20.3557 26.9038 20.0022 26.8702 19.745 27.0537C19.4385 27.2729 19.396 27.7114 19.651 27.9888C20.1119 28.4899 20.66 28.915 21.264 29.2304C22.1029 29.6711 23.0492 29.9038 24.0022 29.9038C24.9553 29.9038 25.9016 29.6711 26.7405 29.2304Z" fill="#616161"/>
</svg>
