<svg width="32" height="32" viewBox="0 0 32 32" fill="none" xmlns="http://www.w3.org/2000/svg">
<path d="M32 16C32 24.8366 24.8366 32 16 32C7.16344 32 0 24.8366 0 16C0 7.16344 7.16344 0 16 0C24.8366 0 32 7.16344 32 16V16Z" fill="#E0E0E0"/>
<path fill-rule="evenodd" clip-rule="evenodd" d="M12.8905 11.2002H17.5242C19.4618 11.2002 20.8146 12.5354 20.8146 14.4489V19.9515C20.8146 21.865 19.4618 23.2002 17.5242 23.2002H12.8905C10.9529 23.2002 9.6001 21.865 9.6001 19.9515V14.4489C9.6001 12.5354 10.9529 11.2002 12.8905 11.2002ZM23.9665 13.1034C24.3177 12.9247 24.7297 12.9434 25.0649 13.1546C25.4001 13.3649 25.6001 13.7304 25.6001 14.13V20.2709C25.6001 20.6713 25.4001 21.036 25.0649 21.2464C24.8817 21.3609 24.6769 21.4194 24.4705 21.4194C24.2985 21.4194 24.1265 21.3788 23.9657 21.2968L22.7809 20.6989C22.3425 20.4764 22.0705 20.0297 22.0705 19.5335V14.8667C22.0705 14.3696 22.3425 13.9229 22.7809 13.702L23.9665 13.1034Z" fill="white"/>
</svg>
