<svg width="48" height="48" viewBox="0 0 48 48" fill="none" xmlns="http://www.w3.org/2000/svg">
<ellipse cx="23.9648" cy="24" rx="23.9648" ry="24" fill="url(#paint0_linear_0_10568)"/>
<path fill-rule="evenodd" clip-rule="evenodd" d="M28.3528 13.3236C29.0632 13.3236 29.7725 13.4238 30.4469 13.6501C34.6025 15.0011 36.0999 19.5609 34.8491 23.5465C34.1398 25.5832 32.9801 27.442 31.4613 28.9608C29.2873 31.0662 26.9016 32.9351 24.3335 34.5451L24.052 34.7151L23.7593 34.5339C21.1822 32.9351 18.7829 31.0662 16.5886 28.9496C15.08 27.4308 13.9192 25.5832 13.1986 23.5465C11.9264 19.5609 13.4238 15.0011 17.6244 13.6265C17.9509 13.5139 18.2876 13.4351 18.6253 13.3911H18.7604C19.0768 13.345 19.3909 13.3236 19.7062 13.3236H19.83C20.5393 13.345 21.2261 13.4688 21.8915 13.6951H21.9579C22.0029 13.7165 22.0367 13.7402 22.0592 13.7616C22.308 13.8415 22.5433 13.9316 22.7685 14.0554L23.1963 14.2468C23.3652 14.3369 23.5679 14.5046 23.6805 14.5733C23.7931 14.6397 23.9169 14.7084 24.0182 14.7861C25.269 13.8302 26.7878 13.3123 28.3528 13.3236ZM31.3476 21.4299C31.8092 21.4175 32.2033 21.0471 32.2371 20.5731V20.4391C32.2708 18.8618 31.315 17.433 29.8615 16.8814C29.3999 16.7226 28.8932 16.9714 28.7243 17.4443C28.5667 17.9172 28.8144 18.4351 29.2873 18.6028C30.009 18.873 30.492 19.5834 30.492 20.3704V20.4053C30.4706 20.6632 30.5482 20.912 30.7059 21.1034C30.8635 21.2948 31.0999 21.4062 31.3476 21.4299Z" fill="white"/>
<defs>
<linearGradient id="paint0_linear_0_10568" x1="71.8943" y1="24" x2="23.8943" y2="-23.9295" gradientUnits="userSpaceOnUse">
<stop stop-color="#FF4D67"/>
<stop offset="1" stop-color="#FF8395"/>
</linearGradient>
</defs>
</svg>
