<svg width="48" height="48" viewBox="0 0 48 48" fill="none" xmlns="http://www.w3.org/2000/svg">
<rect width="48" height="48" rx="8" fill="#F5F5F5"/>
<path fill-rule="evenodd" clip-rule="evenodd" d="M17.9592 15.8462H23.7513C26.1733 15.8462 27.8643 17.5152 27.8643 19.9071V26.7853C27.8643 29.1772 26.1733 30.8462 23.7513 30.8462H17.9592C15.5372 30.8462 13.8462 29.1772 13.8462 26.7853V19.9071C13.8462 17.5152 15.5372 15.8462 17.9592 15.8462ZM31.8042 18.2252C32.2432 18.0019 32.7582 18.0252 33.1772 18.2892C33.5962 18.5521 33.8462 19.009 33.8462 19.5085V27.1846C33.8462 27.6851 33.5962 28.141 33.1772 28.4039C32.9482 28.5471 32.6922 28.6202 32.4342 28.6202C32.2192 28.6202 32.0042 28.5694 31.8032 28.4669L30.3222 27.7196C29.7742 27.4415 29.4342 26.8831 29.4342 26.2628V20.4293C29.4342 19.808 29.7742 19.2496 30.3222 18.9734L31.8042 18.2252Z" fill="#616161"/>
</svg>
