<svg width="48" height="48" viewBox="0 0 48 48" fill="none" xmlns="http://www.w3.org/2000/svg">
<rect width="48" height="48" rx="8" fill="#F5F5F5"/>
<path fill-rule="evenodd" clip-rule="evenodd" d="M28.091 19.0908H32.182C32.6868 19.0908 33.0001 19.3755 33.0001 19.909V23.1801L24.8183 23.1817V19.0908H23.1819V23.1817L15 23.1801V19.909C15 19.3755 15.3125 19.0908 15.8182 19.0908H19.9091C18.8938 18.8666 17.9128 18.1458 17.8849 17.2973C17.8563 16.2991 18.9224 14.6857 20.4786 15.0539C22.0855 15.4359 23.2073 16.75 24.068 17.875C24.9353 16.7279 26.1642 15.2486 27.8407 15.0162C29.2422 14.8288 30.4008 16.3073 30.2502 17.2826C30.1218 18.1376 29.0786 18.8658 28.091 19.0908ZM15.8296 32.3994C15.8296 32.8707 15.9663 33 16.3942 33H23.1704V23.995H15.8296V32.3994ZM24.8297 33H31.606C32.0347 33 32.1705 32.8715 32.1705 32.3994V23.995H24.8289V33H24.8297ZM19.0075 17.5984C18.7244 17.2834 18.9159 16.8555 19.0934 16.5323C19.4199 15.9629 19.8748 15.6168 20.6496 15.9391C21.7296 16.39 22.5249 17.3431 23.1729 18.1981C21.8008 18.3495 19.7537 18.4084 19.0075 17.5984ZM27.4921 15.9244C26.4195 16.4587 25.6446 17.3276 24.977 18.1834C25.5514 18.2366 26.1347 18.2505 26.7116 18.2211L26.7349 18.22C27.4429 18.1888 28.7198 18.1324 29.126 17.5911C29.6595 16.8702 28.6155 15.3689 27.4921 15.9244Z" fill="#616161"/>
</svg>
