<svg width="32" height="32" viewBox="0 0 32 32" fill="none" xmlns="http://www.w3.org/2000/svg">
<path d="M32 16C32 24.8366 24.8366 32 16 32C7.16344 32 0 24.8366 0 16C0 7.16344 7.16344 0 16 0C24.8366 0 32 7.16344 32 16V16Z" fill="#E0E0E0"/>
<path fill-rule="evenodd" clip-rule="evenodd" d="M15.6253 16.3778C18.8166 19.5682 19.5405 15.8773 21.5724 17.9078C23.5313 19.8661 24.6572 20.2585 22.1753 22.7397C21.8644 22.9895 19.8892 25.9953 12.9476 19.0556C6.00512 12.1151 9.00917 10.1379 9.25908 9.82706C11.747 7.33898 12.1326 8.47141 14.0915 10.4298C16.1234 12.4611 12.434 13.1874 15.6253 16.3778V16.3778Z" fill="white"/>
</svg>
