<svg width="48" height="48" viewBox="0 0 48 48" fill="none" xmlns="http://www.w3.org/2000/svg">
<rect width="48" height="48" rx="8" fill="#F5F5F5"/>
<path fill-rule="evenodd" clip-rule="evenodd" d="M20.0996 33H27.8995C30.9508 33 33 30.8597 33 27.675V20.325C33 17.1403 30.9508 15 27.9004 15H20.0996C17.0492 15 15 17.1403 15 20.325V27.675C15 30.8597 17.0492 33 20.0996 33ZM20.849 23.1C19.6082 23.1 18.6 22.0904 18.6 20.85C18.6 19.6096 19.6082 18.6 20.849 18.6C22.0889 18.6 23.0979 19.6096 23.0979 20.85C23.0979 22.0904 22.0889 23.1 20.849 23.1ZM31.0387 26.6406C31.3401 27.4133 31.1835 28.3421 30.8613 29.1075C30.4795 30.0177 29.7482 30.7069 28.8269 31.0078C28.4178 31.1415 27.9888 31.2 27.5608 31.2H19.9758C19.221 31.2 18.5531 31.0189 18.0055 30.6818C17.6626 30.47 17.6019 29.9815 17.8562 29.6648C18.2816 29.1353 18.7015 28.604 19.1251 28.0682C19.9323 27.0428 20.4763 26.7455 21.0808 27.0065C21.3261 27.1143 21.5722 27.2759 21.8256 27.4468C22.5008 27.9056 23.4393 28.5363 24.6755 27.8517C25.5262 27.3753 26.0177 26.5561 26.4466 25.8455C26.6222 25.5576 26.7887 25.2697 26.9824 25.0087C27.1834 24.7385 27.9281 23.8932 28.8929 24.4951C29.5075 24.8741 30.0242 25.3867 30.5772 25.9356C30.7881 26.1456 30.9383 26.3843 31.0387 26.6406Z" fill="#616161"/>
</svg>
