<svg width="24" height="24" viewBox="0 0 24 24" fill="none" xmlns="http://www.w3.org/2000/svg">
<g id="Iconly/Two-tone/Profile">
<mask id="mask0_8_699" style="mask-type:luminance" maskUnits="userSpaceOnUse" x="0" y="0" width="24" height="24">
<path id="&#232;&#183;&#175;&#229;&#190;&#132;" fill-rule="evenodd" clip-rule="evenodd" d="M0 0H24V24H0V0Z" fill="white"/>
</mask>
<g mask="url(#mask0_8_699)">
<g id="Profile">
<path id="Stroke 1" fill-rule="evenodd" clip-rule="evenodd" d="M11.9847 15.3462C8.11707 15.3462 4.81421 15.931 4.81421 18.2729C4.81421 20.6148 8.09611 21.2205 11.9847 21.2205C15.8523 21.2205 19.1542 20.6348 19.1542 18.2938C19.1542 15.9529 15.8733 15.3462 11.9847 15.3462V15.3462Z" stroke="#9E9E9E" stroke-width="1.5" stroke-linejoin="round"/>
<path id="Stroke 3" fill-rule="evenodd" clip-rule="evenodd" d="M11.9846 12.0059C14.5227 12.0059 16.5799 9.94779 16.5799 7.40969C16.5799 4.8716 14.5227 2.81445 11.9846 2.81445C9.44655 2.81445 7.38845 4.8716 7.38845 7.40969C7.37988 9.93922 9.42369 11.9973 11.9523 12.0059H11.9846V12.0059Z" stroke="#9E9E9E" stroke-width="1.5" stroke-linejoin="round"/>
</g>
</g>
</g>
</svg>
