<svg xmlns="http://www.w3.org/2000/svg" width="24" height="24" viewBox="0 0 24 24"><circle cx="12" cy="12" r="11" fill="#FF3B30" stroke="white" stroke-width="1" /><g transform="translate(-2,-1)"><path d="M18.7177 8.29099C18.4676 8.0343 18.0974 7.93867 17.7523 8.03933L9.704 10.3798C9.33985 10.4809 9.08174 10.7713 9.01222 11.1403C8.94119 11.5158 9.18929 11.9924 9.51342 12.1917L12.03 13.7384C12.2881 13.8969 12.6212 13.8572 12.8348 13.6418L15.7165 10.7422C15.8615 10.5912 16.1016 10.5912 16.2467 10.7422C16.3917 10.8881 16.3917 11.1247 16.2467 11.2757L13.36 14.1758C13.1459 14.3907 13.1059 14.7254 13.2635 14.9851L14.8011 17.5269C14.9812 17.8289 15.2913 18 15.6314 18C15.6714 18 15.7165 18 15.7565 17.995C16.1466 17.9446 16.4568 17.6779 16.5718 17.3004L18.9578 9.2624C19.0628 8.92014 18.9678 8.54768 18.7177 8.29099V8.29099Z" fill="white" fill-rule="evenodd" clip-rule="evenodd" /></g></svg>