<svg width="11" height="10" viewBox="0 0 11 10" fill="none" xmlns="http://www.w3.org/2000/svg">
<mask id="path-1-outside-1_8_772" maskUnits="userSpaceOnUse" x="-1" y="0" width="12" height="10" fill="black">
<rect fill="white" x="-1" width="12" height="10"/>
<path fill-rule="evenodd" clip-rule="evenodd" d="M0 4.12169L5.02645 9.46561L10 4.12169L7.77778 1H2.22222L0 4.12169ZM2.75132 3.6455H1.00529L2.53968 1.5291H3.96825L2.75132 3.6455ZM3.38624 3.6455H6.66667L5.44974 1.5291H4.60317L3.38624 3.6455ZM3.43915 4.1746L5.02645 8.19577L6.61376 4.1746H3.43915ZM7.51323 1.5291L9.04762 3.6455H7.24868L6.03175 1.5291H7.51323ZM9.31217 4.1746H7.19577L5.66138 8.03704L9.31217 4.1746ZM0.740741 4.1746L4.39153 8.03704L2.91005 4.1746H0.740741Z"/>
</mask>
<path fill-rule="evenodd" clip-rule="evenodd" d="M0 4.12169L5.02645 9.46561L10 4.12169L7.77778 1H2.22222L0 4.12169ZM2.75132 3.6455H1.00529L2.53968 1.5291H3.96825L2.75132 3.6455ZM3.38624 3.6455H6.66667L5.44974 1.5291H4.60317L3.38624 3.6455ZM3.43915 4.1746L5.02645 8.19577L6.61376 4.1746H3.43915ZM7.51323 1.5291L9.04762 3.6455H7.24868L6.03175 1.5291H7.51323ZM9.31217 4.1746H7.19577L5.66138 8.03704L9.31217 4.1746ZM0.740741 4.1746L4.39153 8.03704L2.91005 4.1746H0.740741Z" fill="white"/>
<path d="M5.02645 9.46561L4.95361 9.53412L5.02684 9.61197L5.09966 9.53374L5.02645 9.46561ZM0 4.12169L-0.0814665 4.0637L-0.129011 4.13049L-0.0728412 4.19021L0 4.12169ZM10 4.12169L10.0732 4.18982L10.1288 4.13013L10.0815 4.0637L10 4.12169ZM7.77778 1L7.85924 0.942007L7.82934 0.9H7.77778V1ZM2.22222 1V0.9H2.17066L2.14076 0.942007L2.22222 1ZM1.00529 3.6455L0.92433 3.58681L0.809275 3.7455H1.00529V3.6455ZM2.75132 3.6455V3.7455H2.80918L2.83801 3.69535L2.75132 3.6455ZM2.53968 1.5291V1.4291H2.48867L2.45872 1.4704L2.53968 1.5291ZM3.96825 1.5291L4.05494 1.57895L4.14111 1.4291H3.96825V1.5291ZM6.66667 3.6455V3.7455H6.83952L6.75336 3.59566L6.66667 3.6455ZM3.38624 3.6455L3.29955 3.59566L3.21339 3.7455H3.38624V3.6455ZM5.44974 1.5291L5.53643 1.47925L5.50759 1.4291H5.44974V1.5291ZM4.60317 1.5291V1.4291H4.54532L4.51648 1.47925L4.60317 1.5291ZM5.02645 8.19577L4.93344 8.23248L5.02645 8.46812L5.11947 8.23248L5.02645 8.19577ZM3.43915 4.1746V4.0746H3.29217L3.34614 4.21132L3.43915 4.1746ZM6.61376 4.1746L6.70677 4.21132L6.76074 4.0746H6.61376V4.1746ZM9.04762 3.6455V3.7455H9.24364L9.12858 3.58681L9.04762 3.6455ZM7.51323 1.5291L7.59419 1.4704L7.56424 1.4291H7.51323V1.5291ZM7.24868 3.6455L7.16199 3.69535L7.19082 3.7455H7.24868V3.6455ZM6.03175 1.5291V1.4291H5.85889L5.94506 1.57895L6.03175 1.5291ZM7.19577 4.1746V4.0746H7.12789L7.10283 4.13768L7.19577 4.1746ZM9.31217 4.1746L9.38484 4.24329L9.54429 4.0746H9.31217V4.1746ZM5.66138 8.03704L5.56844 8.00012L5.73405 8.10573L5.66138 8.03704ZM4.39153 8.03704L4.31886 8.10573L4.4849 8.00122L4.39153 8.03704ZM0.740741 4.1746V4.0746H0.508619L0.668067 4.24329L0.740741 4.1746ZM2.91005 4.1746L3.00342 4.13879L2.9788 4.0746H2.91005V4.1746ZM5.02645 9.46561L5.0993 9.39709L0.0728412 4.05318L0 4.12169L-0.0728412 4.19021L4.95361 9.53412L5.02645 9.46561ZM10 4.12169L9.9268 4.05356L4.95325 9.39748L5.02645 9.46561L5.09966 9.53374L10.0732 4.18982L10 4.12169ZM7.77778 1L7.69631 1.05799L9.91853 4.17969L10 4.12169L10.0815 4.0637L7.85924 0.942007L7.77778 1ZM2.22222 1V1.1H7.77778V1V0.9H2.22222V1ZM0 4.12169L0.0814665 4.17969L2.30369 1.05799L2.22222 1L2.14076 0.942007L-0.0814665 4.0637L0 4.12169ZM1.00529 3.6455V3.7455H2.75132V3.6455V3.5455H1.00529V3.6455ZM2.53968 1.5291L2.45872 1.4704L0.92433 3.58681L1.00529 3.6455L1.08625 3.7042L2.62064 1.5878L2.53968 1.5291ZM3.96825 1.5291V1.4291H2.53968V1.5291V1.6291H3.96825V1.5291ZM2.75132 3.6455L2.83801 3.69535L4.05494 1.57895L3.96825 1.5291L3.88156 1.47925L2.66463 3.59566L2.75132 3.6455ZM6.66667 3.6455V3.5455H3.38624V3.6455V3.7455H6.66667V3.6455ZM5.44974 1.5291L5.36305 1.57895L6.57998 3.69535L6.66667 3.6455L6.75336 3.59566L5.53643 1.47925L5.44974 1.5291ZM4.60317 1.5291V1.6291H5.44974V1.5291V1.4291H4.60317V1.5291ZM3.38624 3.6455L3.47293 3.69535L4.68987 1.57895L4.60317 1.5291L4.51648 1.47925L3.29955 3.59566L3.38624 3.6455ZM5.02645 8.19577L5.11947 8.15905L3.53217 4.13789L3.43915 4.1746L3.34614 4.21132L4.93344 8.23248L5.02645 8.19577ZM6.61376 4.1746L6.52074 4.13789L4.93344 8.15905L5.02645 8.19577L5.11947 8.23248L6.70677 4.21132L6.61376 4.1746ZM3.43915 4.1746V4.2746H6.61376V4.1746V4.0746H3.43915V4.1746ZM9.04762 3.6455L9.12858 3.58681L7.59419 1.4704L7.51323 1.5291L7.43227 1.5878L8.96666 3.7042L9.04762 3.6455ZM7.24868 3.6455V3.7455H9.04762V3.6455V3.5455H7.24868V3.6455ZM6.03175 1.5291L5.94506 1.57895L7.16199 3.69535L7.24868 3.6455L7.33537 3.59566L6.11844 1.47925L6.03175 1.5291ZM7.51323 1.5291V1.4291H6.03175V1.5291V1.6291H7.51323V1.5291ZM7.19577 4.1746V4.2746H9.31217V4.1746V4.0746H7.19577V4.1746ZM5.66138 8.03704L5.75431 8.07396L7.2887 4.21152L7.19577 4.1746L7.10283 4.13768L5.56844 8.00012L5.66138 8.03704ZM9.31217 4.1746L9.2395 4.10591L5.5887 7.96835L5.66138 8.03704L5.73405 8.10573L9.38484 4.24329L9.31217 4.1746ZM4.39153 8.03704L4.46421 7.96835L0.813414 4.10591L0.740741 4.1746L0.668067 4.24329L4.31886 8.10573L4.39153 8.03704ZM2.91005 4.1746L2.81669 4.21042L4.29817 8.07285L4.39153 8.03704L4.4849 8.00122L3.00342 4.13879L2.91005 4.1746ZM0.740741 4.1746V4.2746H2.91005V4.1746V4.0746H0.740741V4.1746Z" fill="white" mask="url(#path-1-outside-1_8_772)"/>
</svg>
