<svg width="161" height="156" viewBox="0 0 161 156" fill="none" xmlns="http://www.w3.org/2000/svg">
<path d="M144.092 78.1C144.092 111.845 116.761 139.2 83.046 139.2C49.3312 139.2 22 111.845 22 78.1C22 44.3554 49.3312 17 83.046 17C116.761 17 144.092 44.3554 144.092 78.1V78.1Z" fill="url(#paint0_linear_0_6714)"/>
<path fill-rule="evenodd" clip-rule="evenodd" d="M100.118 66.4847H67.8456C67.8456 66.4847 65.3899 65.9822 65.3899 64.5041L100.625 61.0528V58.0967C100.625 58.0967 100.183 55.3993 96.2348 56.1235L64.9262 61.5554C64.9262 61.5554 61 62.0505 61 66.9873V95.0705C61.0057 96.385 61.5236 97.6432 62.4395 98.5679C63.3553 99.4925 64.594 100.008 65.8824 99.9998H100.118C101.406 100.008 102.645 99.4925 103.561 98.5679C104.476 97.6432 104.994 96.385 105 95.0705V71.4215C105 70.1044 104.484 68.842 103.567 67.9149C102.65 66.9878 101.408 66.4729 100.118 66.4847ZM84.1808 85.4039C83.8619 85.4891 83.5321 85.524 83.2028 85.5074H81.0296C80.5462 85.469 80.0681 85.6316 79.704 85.9582C79.4056 86.2629 79.2454 86.6808 79.2621 87.1111V90.991C79.2382 91.5066 79.0171 91.9922 78.6464 92.3435C78.2852 92.7759 77.7544 93.0223 77.1976 93.016H75.6691C75.2708 93.0204 74.8883 92.8574 74.6115 92.5652C74.2591 92.1035 74.0932 91.5218 74.1478 90.9393C74.1298 90.7155 74.1298 90.4906 74.1478 90.2668V89.8899V89.1508V87.3476C74.2053 86.8296 74.085 86.3072 73.8074 85.8695C73.4921 85.5302 73.0381 85.363 72.5831 85.4187H70.4099C69.7942 85.4187 69.403 85.2931 69.2581 85.0418C69.1133 84.7906 69.2581 84.3915 69.6493 83.8668C69.8659 83.5762 70.0981 83.254 70.3494 82.905L70.3496 82.9048C70.5522 82.6236 70.7672 82.3251 70.9967 82.0118C71.308 81.5869 71.6113 81.1349 71.9163 80.6805C72.1152 80.384 72.3149 80.0865 72.5179 79.7947L74.0392 77.5776C74.5318 76.8386 75.0171 76.2252 75.488 75.6487C75.6845 75.4221 75.9335 75.2493 76.2124 75.1462C76.5024 75.0326 76.8078 74.9653 77.1179 74.9466C77.4157 74.941 77.7129 74.9758 78.0016 75.0501C78.2365 75.1102 78.4437 75.2512 78.5884 75.4492C78.9071 75.9961 79.2766 76.6242 79.6895 77.3042L79.7244 77.3617C80.1261 78.0232 80.5358 78.6979 80.9934 79.3587C81.1673 79.6097 81.351 79.8648 81.5355 80.121C81.8507 80.5585 82.1681 80.9991 82.4422 81.428C82.8769 82.1079 83.2753 82.7287 83.6664 83.3273L84.2822 84.325C84.4075 84.5139 84.4915 84.7281 84.5285 84.9531C84.5068 85.234 84.4343 85.33 84.1808 85.4039ZM94.5904 84.4089C94.5798 86.3111 96.0799 87.8634 97.9444 87.8797V87.8871C99.8186 87.8831 101.34 86.3405 101.356 84.4284C101.356 82.5262 99.8475 80.9827 97.9829 80.9773C96.1184 80.9719 94.6011 82.5067 94.5904 84.4089Z" fill="white"/>
<path d="M161 23.833C161 27.4229 158.093 30.333 154.506 30.333C150.919 30.333 148.012 27.4229 148.012 23.833C148.012 20.2432 150.919 17.333 154.506 17.333C158.093 17.333 161 20.2432 161 23.833V23.833Z" fill="#FF4D67" fill-opacity="0.526246"/>
<path d="M25.9772 8.66667C25.9772 13.4531 22.1004 17.3333 17.3182 17.3333C12.5359 17.3333 8.65918 13.4531 8.65918 8.66667C8.65918 3.8802 12.5359 0 17.3182 0C22.1004 0 25.9772 3.8802 25.9772 8.66667V8.66667Z" fill="#FF4D67" fill-opacity="0.526246"/>
<path d="M12.9886 115.267C12.9886 117.66 11.0502 119.6 8.65909 119.6C6.26797 119.6 4.32959 117.66 4.32959 115.267C4.32959 112.874 6.26797 110.934 8.65909 110.934C11.0502 110.934 12.9886 112.874 12.9886 115.267V115.267Z" fill="#FF4D67" fill-opacity="0.526246"/>
<path d="M145.471 139.1C145.471 140.297 144.502 141.267 143.306 141.267C142.111 141.267 141.142 140.297 141.142 139.1C141.142 137.904 142.111 136.934 143.306 136.934C144.502 136.934 145.471 137.904 145.471 139.1V139.1Z" fill="#FF4D67" fill-opacity="0.526246"/>
<path d="M94.3832 3.90007C94.3832 5.09668 93.414 6.06673 92.2185 6.06673C91.0229 6.06673 90.0537 5.09668 90.0537 3.90007C90.0537 2.70345 91.0229 1.7334 92.2185 1.7334C93.414 1.7334 94.3832 2.70345 94.3832 3.90007V3.90007Z" fill="#FF4D67" fill-opacity="0.526246"/>
<path d="M57.1492 152.967C57.1492 154.642 55.7923 156 54.1185 156C52.4448 156 51.0879 154.642 51.0879 152.967C51.0879 151.292 52.4448 149.934 54.1185 149.934C55.7923 149.934 57.1492 151.292 57.1492 152.967V152.967Z" fill="#FF4D67" fill-opacity="0.526246"/>
<path d="M106.506 148.2C106.506 148.678 106.118 149.066 105.64 149.066C105.162 149.066 104.774 148.678 104.774 148.2C104.774 147.721 105.162 147.333 105.64 147.333C106.118 147.333 106.506 147.721 106.506 148.2V148.2Z" fill="#FF4D67" fill-opacity="0.526246"/>
<path d="M149.801 95.7663C149.801 96.9629 148.832 97.9329 147.636 97.9329C146.44 97.9329 145.471 96.9629 145.471 95.7663C145.471 94.5697 146.44 93.5996 147.636 93.5996C148.832 93.5996 149.801 94.5697 149.801 95.7663V95.7663Z" fill="#FF4D67" fill-opacity="0.526246"/>
<path d="M1.7318 65.0005C1.7318 65.4791 1.34412 65.8671 0.865901 65.8671C0.387677 65.8671 0 65.4791 0 65.0005C0 64.5218 0.387677 64.1338 0.865901 64.1338C1.34412 64.1338 1.7318 64.5218 1.7318 65.0005V65.0005Z" fill="#DDCFFF"/>
<defs>
<linearGradient id="paint0_linear_0_6714" x1="205.138" y1="78.1" x2="82.938" y2="-43.9919" gradientUnits="userSpaceOnUse">
<stop stop-color="#FF4D67"/>
<stop offset="1" stop-color="#FF8395"/>
</linearGradient>
</defs>
</svg>
